<mxfile host="Electron" agent="Mozilla/5.0 (X11; Linux x86_64) AppleWebKit/537.36 (KHTML, like Gecko) draw.io/27.0.9 Chrome/134.0.6998.205 Electron/35.4.0 Safari/537.36" version="27.0.9">
  <diagram id="C5RBs43oDa-KdzZeNtuy" name="Page-1">
    <mxGraphModel dx="1358" dy="833" grid="1" gridSize="10" guides="1" tooltips="1" connect="1" arrows="1" fold="1" page="1" pageScale="1" pageWidth="2336" pageHeight="1654" background="none" math="0" shadow="0">
      <root>
        <mxCell id="WIyWlLk6GJQsqaUBKTNV-0" />
        <mxCell id="WIyWlLk6GJQsqaUBKTNV-1" parent="WIyWlLk6GJQsqaUBKTNV-0" />
        <mxCell id="yGnjX18Ffy-fiD3lzH0s-0" value="ShoppingModel" style="swimlane;fontStyle=1;align=center;verticalAlign=top;childLayout=stackLayout;horizontal=1;startSize=26;horizontalStack=0;resizeParent=1;resizeParentMax=0;resizeLast=0;collapsible=1;marginBottom=0;whiteSpace=wrap;html=1;labelBackgroundColor=none;fillColor=#09555B;strokeColor=#BAC8D3;strokeWidth=2;fontColor=#EEEEEE;" parent="WIyWlLk6GJQsqaUBKTNV-1" vertex="1">
          <mxGeometry x="480" y="290" width="320" height="298" as="geometry">
            <mxRectangle x="400" y="280" width="120" height="30" as="alternateBounds" />
          </mxGeometry>
        </mxCell>
        <mxCell id="yGnjX18Ffy-fiD3lzH0s-1" value="id: String" style="text;strokeColor=none;fillColor=none;align=left;verticalAlign=top;spacingLeft=4;spacingRight=4;overflow=hidden;rotatable=0;points=[[0,0.5],[1,0.5]];portConstraint=eastwest;whiteSpace=wrap;html=1;labelBackgroundColor=none;fontColor=#EEEEEE;" parent="yGnjX18Ffy-fiD3lzH0s-0" vertex="1">
          <mxGeometry y="26" width="320" height="26" as="geometry" />
        </mxCell>
        <mxCell id="yGnjX18Ffy-fiD3lzH0s-2" value="name: String" style="text;strokeColor=none;fillColor=none;align=left;verticalAlign=top;spacingLeft=4;spacingRight=4;overflow=hidden;rotatable=0;points=[[0,0.5],[1,0.5]];portConstraint=eastwest;whiteSpace=wrap;html=1;labelBackgroundColor=none;fontColor=#EEEEEE;" parent="yGnjX18Ffy-fiD3lzH0s-0" vertex="1">
          <mxGeometry y="52" width="320" height="26" as="geometry" />
        </mxCell>
        <mxCell id="yGnjX18Ffy-fiD3lzH0s-3" value="description: String" style="text;strokeColor=none;fillColor=none;align=left;verticalAlign=top;spacingLeft=4;spacingRight=4;overflow=hidden;rotatable=0;points=[[0,0.5],[1,0.5]];portConstraint=eastwest;whiteSpace=wrap;html=1;labelBackgroundColor=none;fontColor=#EEEEEE;" parent="yGnjX18Ffy-fiD3lzH0s-0" vertex="1">
          <mxGeometry y="78" width="320" height="26" as="geometry" />
        </mxCell>
        <mxCell id="3fTQXvPOQ3stO39uD6o4-11" value="type: ShoppingType" style="text;strokeColor=none;fillColor=none;align=left;verticalAlign=top;spacingLeft=4;spacingRight=4;overflow=hidden;rotatable=0;points=[[0,0.5],[1,0.5]];portConstraint=eastwest;whiteSpace=wrap;html=1;labelBackgroundColor=none;fontColor=#EEEEEE;" parent="yGnjX18Ffy-fiD3lzH0s-0" vertex="1">
          <mxGeometry y="104" width="320" height="26" as="geometry" />
        </mxCell>
        <mxCell id="yGnjX18Ffy-fiD3lzH0s-14" value="totalPrice: int (em centavos)" style="text;strokeColor=none;fillColor=none;align=left;verticalAlign=top;spacingLeft=4;spacingRight=4;overflow=hidden;rotatable=0;points=[[0,0.5],[1,0.5]];portConstraint=eastwest;whiteSpace=wrap;html=1;labelBackgroundColor=none;fontColor=#EEEEEE;" parent="yGnjX18Ffy-fiD3lzH0s-0" vertex="1">
          <mxGeometry y="130" width="320" height="26" as="geometry" />
        </mxCell>
        <mxCell id="yGnjX18Ffy-fiD3lzH0s-15" value="createdAt: DateTime" style="text;strokeColor=none;fillColor=none;align=left;verticalAlign=top;spacingLeft=4;spacingRight=4;overflow=hidden;rotatable=0;points=[[0,0.5],[1,0.5]];portConstraint=eastwest;whiteSpace=wrap;html=1;labelBackgroundColor=none;fontColor=#EEEEEE;" parent="yGnjX18Ffy-fiD3lzH0s-0" vertex="1">
          <mxGeometry y="156" width="320" height="26" as="geometry" />
        </mxCell>
        <mxCell id="yGnjX18Ffy-fiD3lzH0s-13" value="updatedAt: DateTime" style="text;strokeColor=none;fillColor=none;align=left;verticalAlign=top;spacingLeft=4;spacingRight=4;overflow=hidden;rotatable=0;points=[[0,0.5],[1,0.5]];portConstraint=eastwest;whiteSpace=wrap;html=1;labelBackgroundColor=none;fontColor=#EEEEEE;" parent="yGnjX18Ffy-fiD3lzH0s-0" vertex="1">
          <mxGeometry y="182" width="320" height="26" as="geometry" />
        </mxCell>
        <mxCell id="yGnjX18Ffy-fiD3lzH0s-4" value="" style="line;strokeWidth=2;fillColor=#09555B;align=left;verticalAlign=middle;spacingTop=-1;spacingLeft=3;spacingRight=3;rotatable=0;labelPosition=right;points=[];portConstraint=eastwest;strokeColor=#BAC8D3;labelBackgroundColor=none;fontColor=#EEEEEE;" parent="yGnjX18Ffy-fiD3lzH0s-0" vertex="1">
          <mxGeometry y="208" width="320" height="8" as="geometry" />
        </mxCell>
        <mxCell id="yGnjX18Ffy-fiD3lzH0s-5" value="ShoppingModel({id, ...})" style="text;strokeColor=none;fillColor=none;align=left;verticalAlign=top;spacingLeft=4;spacingRight=4;overflow=hidden;rotatable=0;points=[[0,0.5],[1,0.5]];portConstraint=eastwest;whiteSpace=wrap;html=1;labelBackgroundColor=none;fontColor=#EEEEEE;fontStyle=1" parent="yGnjX18Ffy-fiD3lzH0s-0" vertex="1">
          <mxGeometry y="216" width="320" height="22" as="geometry" />
        </mxCell>
        <mxCell id="3fTQXvPOQ3stO39uD6o4-16" value="" style="line;strokeWidth=2;fillColor=#09555B;align=left;verticalAlign=middle;spacingTop=-1;spacingLeft=3;spacingRight=3;rotatable=0;labelPosition=right;points=[];portConstraint=eastwest;strokeColor=#BAC8D3;labelBackgroundColor=none;fontColor=#EEEEEE;" parent="yGnjX18Ffy-fiD3lzH0s-0" vertex="1">
          <mxGeometry y="238" width="320" height="8" as="geometry" />
        </mxCell>
        <mxCell id="3fTQXvPOQ3stO39uD6o4-15" value="factory fromDto(String id, &lt;b&gt;ShoppingDto dto&lt;/b&gt;)" style="text;strokeColor=none;fillColor=none;align=left;verticalAlign=top;spacingLeft=4;spacingRight=4;overflow=hidden;rotatable=0;points=[[0,0.5],[1,0.5]];portConstraint=eastwest;whiteSpace=wrap;html=1;labelBackgroundColor=none;fontColor=#EEEEEE;" parent="yGnjX18Ffy-fiD3lzH0s-0" vertex="1">
          <mxGeometry y="246" width="320" height="26" as="geometry" />
        </mxCell>
        <mxCell id="3fTQXvPOQ3stO39uD6o4-18" value="factory fromJson(Map&amp;lt;String, dynamic&amp;gt; json)" style="text;strokeColor=none;fillColor=none;align=left;verticalAlign=top;spacingLeft=4;spacingRight=4;overflow=hidden;rotatable=0;points=[[0,0.5],[1,0.5]];portConstraint=eastwest;whiteSpace=wrap;html=1;labelBackgroundColor=none;fontColor=#EEEEEE;" parent="yGnjX18Ffy-fiD3lzH0s-0" vertex="1">
          <mxGeometry y="272" width="320" height="26" as="geometry" />
        </mxCell>
        <mxCell id="yGnjX18Ffy-fiD3lzH0s-16" value="ProductModel" style="swimlane;fontStyle=1;align=center;verticalAlign=top;childLayout=stackLayout;horizontal=1;startSize=26;horizontalStack=0;resizeParent=1;resizeParentMax=0;resizeLast=0;collapsible=1;marginBottom=0;whiteSpace=wrap;html=1;labelBackgroundColor=none;fillColor=#09555B;strokeColor=#BAC8D3;fontColor=#EEEEEE;strokeWidth=2;" parent="WIyWlLk6GJQsqaUBKTNV-1" vertex="1">
          <mxGeometry x="480" y="622" width="320" height="402" as="geometry">
            <mxRectangle x="400" y="280" width="120" height="30" as="alternateBounds" />
          </mxGeometry>
        </mxCell>
        <mxCell id="yGnjX18Ffy-fiD3lzH0s-17" value="id: String" style="text;strokeColor=none;fillColor=none;align=left;verticalAlign=top;spacingLeft=4;spacingRight=4;overflow=hidden;rotatable=0;points=[[0,0.5],[1,0.5]];portConstraint=eastwest;whiteSpace=wrap;html=1;labelBackgroundColor=none;fontColor=#EEEEEE;" parent="yGnjX18Ffy-fiD3lzH0s-16" vertex="1">
          <mxGeometry y="26" width="320" height="26" as="geometry" />
        </mxCell>
        <mxCell id="yGnjX18Ffy-fiD3lzH0s-18" value="name: String" style="text;strokeColor=none;fillColor=none;align=left;verticalAlign=top;spacingLeft=4;spacingRight=4;overflow=hidden;rotatable=0;points=[[0,0.5],[1,0.5]];portConstraint=eastwest;whiteSpace=wrap;html=1;labelBackgroundColor=none;fontColor=#EEEEEE;" parent="yGnjX18Ffy-fiD3lzH0s-16" vertex="1">
          <mxGeometry y="52" width="320" height="26" as="geometry" />
        </mxCell>
        <mxCell id="yGnjX18Ffy-fiD3lzH0s-25" value="description: String?" style="text;strokeColor=none;fillColor=none;align=left;verticalAlign=top;spacingLeft=4;spacingRight=4;overflow=hidden;rotatable=0;points=[[0,0.5],[1,0.5]];portConstraint=eastwest;whiteSpace=wrap;html=1;labelBackgroundColor=none;fontColor=#EEEEEE;" parent="yGnjX18Ffy-fiD3lzH0s-16" vertex="1">
          <mxGeometry y="78" width="320" height="26" as="geometry" />
        </mxCell>
        <mxCell id="yGnjX18Ffy-fiD3lzH0s-20" value="barCode: String?" style="text;strokeColor=none;fillColor=none;align=left;verticalAlign=top;spacingLeft=4;spacingRight=4;overflow=hidden;rotatable=0;points=[[0,0.5],[1,0.5]];portConstraint=eastwest;whiteSpace=wrap;html=1;labelBackgroundColor=none;fontColor=#EEEEEE;" parent="yGnjX18Ffy-fiD3lzH0s-16" vertex="1">
          <mxGeometry y="104" width="320" height="26" as="geometry" />
        </mxCell>
        <mxCell id="SM7ea6qoSSTbtUkmd5gZ-17" value="saleBy: SaleBy (unit or weight)" style="text;strokeColor=none;fillColor=none;align=left;verticalAlign=top;spacingLeft=4;spacingRight=4;overflow=hidden;rotatable=0;points=[[0,0.5],[1,0.5]];portConstraint=eastwest;whiteSpace=wrap;html=1;labelBackgroundColor=none;fontColor=#EEEEEE;" parent="yGnjX18Ffy-fiD3lzH0s-16" vertex="1">
          <mxGeometry y="130" width="320" height="26" as="geometry" />
        </mxCell>
        <mxCell id="2GeXezmI1lT7xW8D0i3s-1" value="categoryId: String" style="text;strokeColor=none;fillColor=none;align=left;verticalAlign=top;spacingLeft=4;spacingRight=4;overflow=hidden;rotatable=0;points=[[0,0.5],[1,0.5]];portConstraint=eastwest;whiteSpace=wrap;html=1;labelBackgroundColor=none;fontColor=#EEEEEE;" parent="yGnjX18Ffy-fiD3lzH0s-16" vertex="1">
          <mxGeometry y="156" width="320" height="26" as="geometry" />
        </mxCell>
        <mxCell id="2GeXezmI1lT7xW8D0i3s-5" value="category: String" style="text;strokeColor=none;fillColor=none;align=left;verticalAlign=top;spacingLeft=4;spacingRight=4;overflow=hidden;rotatable=0;points=[[0,0.5],[1,0.5]];portConstraint=eastwest;whiteSpace=wrap;html=1;labelBackgroundColor=none;fontColor=#EEEEEE;" parent="yGnjX18Ffy-fiD3lzH0s-16" vertex="1">
          <mxGeometry y="182" width="320" height="26" as="geometry" />
        </mxCell>
        <mxCell id="2GeXezmI1lT7xW8D0i3s-0" value="subCategoryId: String" style="text;strokeColor=none;fillColor=none;align=left;verticalAlign=top;spacingLeft=4;spacingRight=4;overflow=hidden;rotatable=0;points=[[0,0.5],[1,0.5]];portConstraint=eastwest;whiteSpace=wrap;html=1;labelBackgroundColor=none;fontColor=#EEEEEE;" parent="yGnjX18Ffy-fiD3lzH0s-16" vertex="1">
          <mxGeometry y="208" width="320" height="26" as="geometry" />
        </mxCell>
        <mxCell id="2GeXezmI1lT7xW8D0i3s-6" value="subCategory: String" style="text;strokeColor=none;fillColor=none;align=left;verticalAlign=top;spacingLeft=4;spacingRight=4;overflow=hidden;rotatable=0;points=[[0,0.5],[1,0.5]];portConstraint=eastwest;whiteSpace=wrap;html=1;labelBackgroundColor=none;fontColor=#EEEEEE;" parent="yGnjX18Ffy-fiD3lzH0s-16" vertex="1">
          <mxGeometry y="234" width="320" height="26" as="geometry" />
        </mxCell>
        <mxCell id="yGnjX18Ffy-fiD3lzH0s-21" value="createdAt: DateTime" style="text;strokeColor=none;fillColor=none;align=left;verticalAlign=top;spacingLeft=4;spacingRight=4;overflow=hidden;rotatable=0;points=[[0,0.5],[1,0.5]];portConstraint=eastwest;whiteSpace=wrap;html=1;labelBackgroundColor=none;fontColor=#EEEEEE;" parent="yGnjX18Ffy-fiD3lzH0s-16" vertex="1">
          <mxGeometry y="260" width="320" height="26" as="geometry" />
        </mxCell>
        <mxCell id="yGnjX18Ffy-fiD3lzH0s-22" value="updatedAt: DateTime" style="text;strokeColor=none;fillColor=none;align=left;verticalAlign=top;spacingLeft=4;spacingRight=4;overflow=hidden;rotatable=0;points=[[0,0.5],[1,0.5]];portConstraint=eastwest;whiteSpace=wrap;html=1;labelBackgroundColor=none;fontColor=#EEEEEE;" parent="yGnjX18Ffy-fiD3lzH0s-16" vertex="1">
          <mxGeometry y="286" width="320" height="26" as="geometry" />
        </mxCell>
        <mxCell id="yGnjX18Ffy-fiD3lzH0s-23" value="" style="line;strokeWidth=2;fillColor=#09555B;align=left;verticalAlign=middle;spacingTop=-1;spacingLeft=3;spacingRight=3;rotatable=0;labelPosition=right;points=[];portConstraint=eastwest;strokeColor=#BAC8D3;labelBackgroundColor=none;fontColor=#EEEEEE;" parent="yGnjX18Ffy-fiD3lzH0s-16" vertex="1">
          <mxGeometry y="312" width="320" height="8" as="geometry" />
        </mxCell>
        <mxCell id="yGnjX18Ffy-fiD3lzH0s-24" value="ProductModel({id, ...})" style="text;strokeColor=none;fillColor=none;align=left;verticalAlign=top;spacingLeft=4;spacingRight=4;overflow=hidden;rotatable=0;points=[[0,0.5],[1,0.5]];portConstraint=eastwest;whiteSpace=wrap;html=1;labelBackgroundColor=none;fontColor=#EEEEEE;fontStyle=1" parent="yGnjX18Ffy-fiD3lzH0s-16" vertex="1">
          <mxGeometry y="320" width="320" height="22" as="geometry" />
        </mxCell>
        <mxCell id="3fTQXvPOQ3stO39uD6o4-21" value="" style="line;strokeWidth=2;fillColor=#09555B;align=left;verticalAlign=middle;spacingTop=-1;spacingLeft=3;spacingRight=3;rotatable=0;labelPosition=right;points=[];portConstraint=eastwest;strokeColor=#BAC8D3;labelBackgroundColor=none;fontColor=#EEEEEE;" parent="yGnjX18Ffy-fiD3lzH0s-16" vertex="1">
          <mxGeometry y="342" width="320" height="8" as="geometry" />
        </mxCell>
        <mxCell id="3fTQXvPOQ3stO39uD6o4-24" value="factory fromDto(String id, &lt;b&gt;ProductDto dto&lt;/b&gt;)" style="text;strokeColor=none;fillColor=none;align=left;verticalAlign=top;spacingLeft=4;spacingRight=4;overflow=hidden;rotatable=0;points=[[0,0.5],[1,0.5]];portConstraint=eastwest;whiteSpace=wrap;html=1;labelBackgroundColor=none;fontColor=#EEEEEE;" parent="yGnjX18Ffy-fiD3lzH0s-16" vertex="1">
          <mxGeometry y="350" width="320" height="26" as="geometry" />
        </mxCell>
        <mxCell id="3fTQXvPOQ3stO39uD6o4-23" value="factory fromJson(Map&amp;lt;String, dynamic&amp;gt; json)" style="text;strokeColor=none;fillColor=none;align=left;verticalAlign=top;spacingLeft=4;spacingRight=4;overflow=hidden;rotatable=0;points=[[0,0.5],[1,0.5]];portConstraint=eastwest;whiteSpace=wrap;html=1;labelBackgroundColor=none;fontColor=#EEEEEE;" parent="yGnjX18Ffy-fiD3lzH0s-16" vertex="1">
          <mxGeometry y="376" width="320" height="26" as="geometry" />
        </mxCell>
        <mxCell id="3fTQXvPOQ3stO39uD6o4-38" style="edgeStyle=orthogonalEdgeStyle;rounded=0;orthogonalLoop=1;jettySize=auto;html=1;entryX=0;entryY=0.5;entryDx=0;entryDy=0;strokeWidth=2;dashed=1;labelBackgroundColor=none;strokeColor=#7EA6E0;fontColor=default;" parent="WIyWlLk6GJQsqaUBKTNV-1" source="3fTQXvPOQ3stO39uD6o4-0" target="3fTQXvPOQ3stO39uD6o4-15" edge="1">
          <mxGeometry relative="1" as="geometry" />
        </mxCell>
        <mxCell id="3fTQXvPOQ3stO39uD6o4-0" value="ShoppingDto" style="swimlane;fontStyle=1;align=center;verticalAlign=top;childLayout=stackLayout;horizontal=1;startSize=26;horizontalStack=0;resizeParent=1;resizeParentMax=0;resizeLast=0;collapsible=1;marginBottom=0;whiteSpace=wrap;html=1;labelBackgroundColor=none;fillColor=#09555B;strokeColor=#BAC8D3;strokeWidth=2;fontColor=#EEEEEE;" parent="WIyWlLk6GJQsqaUBKTNV-1" vertex="1">
          <mxGeometry x="80" y="342" width="320" height="246" as="geometry">
            <mxRectangle x="400" y="280" width="120" height="30" as="alternateBounds" />
          </mxGeometry>
        </mxCell>
        <mxCell id="3fTQXvPOQ3stO39uD6o4-2" value="name: String" style="text;strokeColor=none;fillColor=none;align=left;verticalAlign=top;spacingLeft=4;spacingRight=4;overflow=hidden;rotatable=0;points=[[0,0.5],[1,0.5]];portConstraint=eastwest;whiteSpace=wrap;html=1;labelBackgroundColor=none;fontColor=#EEEEEE;" parent="3fTQXvPOQ3stO39uD6o4-0" vertex="1">
          <mxGeometry y="26" width="320" height="26" as="geometry" />
        </mxCell>
        <mxCell id="3fTQXvPOQ3stO39uD6o4-3" value="description: String" style="text;strokeColor=none;fillColor=none;align=left;verticalAlign=top;spacingLeft=4;spacingRight=4;overflow=hidden;rotatable=0;points=[[0,0.5],[1,0.5]];portConstraint=eastwest;whiteSpace=wrap;html=1;labelBackgroundColor=none;fontColor=#EEEEEE;" parent="3fTQXvPOQ3stO39uD6o4-0" vertex="1">
          <mxGeometry y="52" width="320" height="26" as="geometry" />
        </mxCell>
        <mxCell id="3fTQXvPOQ3stO39uD6o4-12" value="type: ShoppingType" style="text;strokeColor=none;fillColor=none;align=left;verticalAlign=top;spacingLeft=4;spacingRight=4;overflow=hidden;rotatable=0;points=[[0,0.5],[1,0.5]];portConstraint=eastwest;whiteSpace=wrap;html=1;labelBackgroundColor=none;fontColor=#EEEEEE;" parent="3fTQXvPOQ3stO39uD6o4-0" vertex="1">
          <mxGeometry y="78" width="320" height="26" as="geometry" />
        </mxCell>
        <mxCell id="3fTQXvPOQ3stO39uD6o4-4" value="totalPrice: int (em centavos)" style="text;strokeColor=none;fillColor=none;align=left;verticalAlign=top;spacingLeft=4;spacingRight=4;overflow=hidden;rotatable=0;points=[[0,0.5],[1,0.5]];portConstraint=eastwest;whiteSpace=wrap;html=1;labelBackgroundColor=none;fontColor=#EEEEEE;" parent="3fTQXvPOQ3stO39uD6o4-0" vertex="1">
          <mxGeometry y="104" width="320" height="26" as="geometry" />
        </mxCell>
        <mxCell id="3fTQXvPOQ3stO39uD6o4-5" value="createdAt: DateTime" style="text;strokeColor=none;fillColor=none;align=left;verticalAlign=top;spacingLeft=4;spacingRight=4;overflow=hidden;rotatable=0;points=[[0,0.5],[1,0.5]];portConstraint=eastwest;whiteSpace=wrap;html=1;labelBackgroundColor=none;fontColor=#EEEEEE;" parent="3fTQXvPOQ3stO39uD6o4-0" vertex="1">
          <mxGeometry y="130" width="320" height="26" as="geometry" />
        </mxCell>
        <mxCell id="3fTQXvPOQ3stO39uD6o4-6" value="updatedAt: DateTime" style="text;strokeColor=none;fillColor=none;align=left;verticalAlign=top;spacingLeft=4;spacingRight=4;overflow=hidden;rotatable=0;points=[[0,0.5],[1,0.5]];portConstraint=eastwest;whiteSpace=wrap;html=1;labelBackgroundColor=none;fontColor=#EEEEEE;" parent="3fTQXvPOQ3stO39uD6o4-0" vertex="1">
          <mxGeometry y="156" width="320" height="26" as="geometry" />
        </mxCell>
        <mxCell id="3fTQXvPOQ3stO39uD6o4-7" value="" style="line;strokeWidth=2;fillColor=#09555B;align=left;verticalAlign=middle;spacingTop=-1;spacingLeft=3;spacingRight=3;rotatable=0;labelPosition=right;points=[];portConstraint=eastwest;strokeColor=#BAC8D3;labelBackgroundColor=none;fontColor=#EEEEEE;" parent="3fTQXvPOQ3stO39uD6o4-0" vertex="1">
          <mxGeometry y="182" width="320" height="8" as="geometry" />
        </mxCell>
        <mxCell id="3fTQXvPOQ3stO39uD6o4-8" value="ShoppingDto({name, ...})" style="text;strokeColor=#006EAF;fillColor=none;align=left;verticalAlign=top;spacingLeft=4;spacingRight=4;overflow=hidden;rotatable=0;points=[[0,0.5],[1,0.5]];portConstraint=eastwest;whiteSpace=wrap;html=1;labelBackgroundColor=none;fontColor=#ffffff;fontStyle=1" parent="3fTQXvPOQ3stO39uD6o4-0" vertex="1">
          <mxGeometry y="190" width="320" height="22" as="geometry" />
        </mxCell>
        <mxCell id="3fTQXvPOQ3stO39uD6o4-20" value="" style="line;strokeWidth=2;fillColor=#09555B;align=left;verticalAlign=middle;spacingTop=-1;spacingLeft=3;spacingRight=3;rotatable=0;labelPosition=right;points=[];portConstraint=eastwest;strokeColor=#BAC8D3;labelBackgroundColor=none;fontColor=#EEEEEE;" parent="3fTQXvPOQ3stO39uD6o4-0" vertex="1">
          <mxGeometry y="212" width="320" height="8" as="geometry" />
        </mxCell>
        <mxCell id="3fTQXvPOQ3stO39uD6o4-19" value="factory fromJson(Map&amp;lt;String, dynamic&amp;gt; json)" style="text;strokeColor=none;fillColor=none;align=left;verticalAlign=top;spacingLeft=4;spacingRight=4;overflow=hidden;rotatable=0;points=[[0,0.5],[1,0.5]];portConstraint=eastwest;whiteSpace=wrap;html=1;labelBackgroundColor=none;fontColor=#EEEEEE;" parent="3fTQXvPOQ3stO39uD6o4-0" vertex="1">
          <mxGeometry y="220" width="320" height="26" as="geometry" />
        </mxCell>
        <mxCell id="3fTQXvPOQ3stO39uD6o4-13" style="edgeStyle=orthogonalEdgeStyle;rounded=0;orthogonalLoop=1;jettySize=auto;html=1;strokeWidth=2;exitX=1;exitY=0.5;exitDx=0;exitDy=0;labelBackgroundColor=none;strokeColor=#7EA6E0;fontColor=default;dashed=1;dashPattern=1 1;" parent="WIyWlLk6GJQsqaUBKTNV-1" source="3fTQXvPOQ3stO39uD6o4-10" target="3fTQXvPOQ3stO39uD6o4-11" edge="1">
          <mxGeometry relative="1" as="geometry">
            <Array as="points">
              <mxPoint x="440" y="280" />
              <mxPoint x="440" y="407" />
            </Array>
          </mxGeometry>
        </mxCell>
        <mxCell id="3fTQXvPOQ3stO39uD6o4-14" style="edgeStyle=orthogonalEdgeStyle;rounded=0;orthogonalLoop=1;jettySize=auto;html=1;exitX=1;exitY=0.5;exitDx=0;exitDy=0;strokeWidth=2;labelBackgroundColor=none;fontColor=default;strokeColor=#7EA6E0;dashed=1;dashPattern=1 1;" parent="WIyWlLk6GJQsqaUBKTNV-1" source="3fTQXvPOQ3stO39uD6o4-10" target="3fTQXvPOQ3stO39uD6o4-12" edge="1">
          <mxGeometry relative="1" as="geometry">
            <Array as="points">
              <mxPoint x="440" y="280" />
              <mxPoint x="440" y="433" />
            </Array>
          </mxGeometry>
        </mxCell>
        <mxCell id="3fTQXvPOQ3stO39uD6o4-10" value="&lt;p style=&quot;margin:0px;margin-top:4px;text-align:center;text-decoration:underline;&quot;&gt;&lt;b&gt;enum: ShoppingType&lt;/b&gt;&lt;/p&gt;&lt;p style=&quot;margin:0px;margin-left:8px;&quot;&gt;&lt;u style=&quot;background-color: transparent; color: light-dark(rgb(0, 0, 0), rgb(255, 255, 255));&quot;&gt;supermarket: Supermercado&lt;/u&gt;&lt;/p&gt;&lt;p style=&quot;margin:0px;margin-left:8px;&quot;&gt;pharmacy: Farmácia&lt;/p&gt;&lt;p style=&quot;margin:0px;margin-left:8px;&quot;&gt;groceryStore: Mercearia&lt;/p&gt;&lt;p style=&quot;margin:0px;margin-left:8px;&quot;&gt;other: Outro&lt;/p&gt;" style="verticalAlign=top;align=left;overflow=fill;html=1;whiteSpace=wrap;fillColor=#09555B;strokeColor=#BAC8D3;strokeWidth=2;labelBackgroundColor=none;fontColor=#EEEEEE;" parent="WIyWlLk6GJQsqaUBKTNV-1" vertex="1">
          <mxGeometry x="220" y="240" width="180" height="80" as="geometry" />
        </mxCell>
        <mxCell id="3fTQXvPOQ3stO39uD6o4-37" style="edgeStyle=orthogonalEdgeStyle;rounded=0;orthogonalLoop=1;jettySize=auto;html=1;entryX=0;entryY=0.5;entryDx=0;entryDy=0;strokeWidth=2;dashed=1;labelBackgroundColor=none;strokeColor=#7EA6E0;fontColor=default;" parent="WIyWlLk6GJQsqaUBKTNV-1" source="3fTQXvPOQ3stO39uD6o4-25" target="3fTQXvPOQ3stO39uD6o4-24" edge="1">
          <mxGeometry relative="1" as="geometry" />
        </mxCell>
        <mxCell id="3fTQXvPOQ3stO39uD6o4-25" value="ProductDto" style="swimlane;fontStyle=1;align=center;verticalAlign=top;childLayout=stackLayout;horizontal=1;startSize=26;horizontalStack=0;resizeParent=1;resizeParentMax=0;resizeLast=0;collapsible=1;marginBottom=0;whiteSpace=wrap;html=1;labelBackgroundColor=none;fillColor=#09555B;strokeColor=#BAC8D3;fontColor=#EEEEEE;strokeWidth=2;" parent="WIyWlLk6GJQsqaUBKTNV-1" vertex="1">
          <mxGeometry x="80" y="622" width="320" height="376" as="geometry">
            <mxRectangle x="400" y="280" width="120" height="30" as="alternateBounds" />
          </mxGeometry>
        </mxCell>
        <mxCell id="3fTQXvPOQ3stO39uD6o4-27" value="name: String" style="text;strokeColor=none;fillColor=none;align=left;verticalAlign=top;spacingLeft=4;spacingRight=4;overflow=hidden;rotatable=0;points=[[0,0.5],[1,0.5]];portConstraint=eastwest;whiteSpace=wrap;html=1;labelBackgroundColor=none;fontColor=#EEEEEE;" parent="3fTQXvPOQ3stO39uD6o4-25" vertex="1">
          <mxGeometry y="26" width="320" height="26" as="geometry" />
        </mxCell>
        <mxCell id="3fTQXvPOQ3stO39uD6o4-28" value="description: String?" style="text;strokeColor=none;fillColor=none;align=left;verticalAlign=top;spacingLeft=4;spacingRight=4;overflow=hidden;rotatable=0;points=[[0,0.5],[1,0.5]];portConstraint=eastwest;whiteSpace=wrap;html=1;labelBackgroundColor=none;fontColor=#EEEEEE;" parent="3fTQXvPOQ3stO39uD6o4-25" vertex="1">
          <mxGeometry y="52" width="320" height="26" as="geometry" />
        </mxCell>
        <mxCell id="3fTQXvPOQ3stO39uD6o4-29" value="barCode: String" style="text;strokeColor=none;fillColor=none;align=left;verticalAlign=top;spacingLeft=4;spacingRight=4;overflow=hidden;rotatable=0;points=[[0,0.5],[1,0.5]];portConstraint=eastwest;whiteSpace=wrap;html=1;labelBackgroundColor=none;fontColor=#EEEEEE;" parent="3fTQXvPOQ3stO39uD6o4-25" vertex="1">
          <mxGeometry y="78" width="320" height="26" as="geometry" />
        </mxCell>
        <mxCell id="SM7ea6qoSSTbtUkmd5gZ-22" value="isUnitPrice: bool" style="text;strokeColor=none;fillColor=none;align=left;verticalAlign=top;spacingLeft=4;spacingRight=4;overflow=hidden;rotatable=0;points=[[0,0.5],[1,0.5]];portConstraint=eastwest;whiteSpace=wrap;html=1;labelBackgroundColor=none;fontColor=#EEEEEE;" parent="3fTQXvPOQ3stO39uD6o4-25" vertex="1">
          <mxGeometry y="104" width="320" height="26" as="geometry" />
        </mxCell>
        <mxCell id="2GeXezmI1lT7xW8D0i3s-2" value="saleBy: SaleBy (unit or weight)" style="text;strokeColor=none;fillColor=none;align=left;verticalAlign=top;spacingLeft=4;spacingRight=4;overflow=hidden;rotatable=0;points=[[0,0.5],[1,0.5]];portConstraint=eastwest;whiteSpace=wrap;html=1;labelBackgroundColor=none;fontColor=#EEEEEE;" parent="3fTQXvPOQ3stO39uD6o4-25" vertex="1">
          <mxGeometry y="130" width="320" height="26" as="geometry" />
        </mxCell>
        <mxCell id="2GeXezmI1lT7xW8D0i3s-3" value="categoryId: String" style="text;strokeColor=none;fillColor=none;align=left;verticalAlign=top;spacingLeft=4;spacingRight=4;overflow=hidden;rotatable=0;points=[[0,0.5],[1,0.5]];portConstraint=eastwest;whiteSpace=wrap;html=1;labelBackgroundColor=none;fontColor=#EEEEEE;" parent="3fTQXvPOQ3stO39uD6o4-25" vertex="1">
          <mxGeometry y="156" width="320" height="26" as="geometry" />
        </mxCell>
        <mxCell id="2GeXezmI1lT7xW8D0i3s-7" value="category: String" style="text;strokeColor=none;fillColor=none;align=left;verticalAlign=top;spacingLeft=4;spacingRight=4;overflow=hidden;rotatable=0;points=[[0,0.5],[1,0.5]];portConstraint=eastwest;whiteSpace=wrap;html=1;labelBackgroundColor=none;fontColor=#EEEEEE;" parent="3fTQXvPOQ3stO39uD6o4-25" vertex="1">
          <mxGeometry y="182" width="320" height="26" as="geometry" />
        </mxCell>
        <mxCell id="2GeXezmI1lT7xW8D0i3s-4" value="subCategoryId: String" style="text;strokeColor=none;fillColor=none;align=left;verticalAlign=top;spacingLeft=4;spacingRight=4;overflow=hidden;rotatable=0;points=[[0,0.5],[1,0.5]];portConstraint=eastwest;whiteSpace=wrap;html=1;labelBackgroundColor=none;fontColor=#EEEEEE;" parent="3fTQXvPOQ3stO39uD6o4-25" vertex="1">
          <mxGeometry y="208" width="320" height="26" as="geometry" />
        </mxCell>
        <mxCell id="2GeXezmI1lT7xW8D0i3s-8" value="subCategory: String" style="text;strokeColor=none;fillColor=none;align=left;verticalAlign=top;spacingLeft=4;spacingRight=4;overflow=hidden;rotatable=0;points=[[0,0.5],[1,0.5]];portConstraint=eastwest;whiteSpace=wrap;html=1;labelBackgroundColor=none;fontColor=#EEEEEE;" parent="3fTQXvPOQ3stO39uD6o4-25" vertex="1">
          <mxGeometry y="234" width="320" height="26" as="geometry" />
        </mxCell>
        <mxCell id="3fTQXvPOQ3stO39uD6o4-30" value="createdAt: DateTime" style="text;strokeColor=none;fillColor=none;align=left;verticalAlign=top;spacingLeft=4;spacingRight=4;overflow=hidden;rotatable=0;points=[[0,0.5],[1,0.5]];portConstraint=eastwest;whiteSpace=wrap;html=1;labelBackgroundColor=none;fontColor=#EEEEEE;" parent="3fTQXvPOQ3stO39uD6o4-25" vertex="1">
          <mxGeometry y="260" width="320" height="26" as="geometry" />
        </mxCell>
        <mxCell id="3fTQXvPOQ3stO39uD6o4-31" value="updatedAt: DateTime" style="text;strokeColor=none;fillColor=none;align=left;verticalAlign=top;spacingLeft=4;spacingRight=4;overflow=hidden;rotatable=0;points=[[0,0.5],[1,0.5]];portConstraint=eastwest;whiteSpace=wrap;html=1;labelBackgroundColor=none;fontColor=#EEEEEE;" parent="3fTQXvPOQ3stO39uD6o4-25" vertex="1">
          <mxGeometry y="286" width="320" height="26" as="geometry" />
        </mxCell>
        <mxCell id="3fTQXvPOQ3stO39uD6o4-32" value="" style="line;strokeWidth=2;fillColor=#09555B;align=left;verticalAlign=middle;spacingTop=-1;spacingLeft=3;spacingRight=3;rotatable=0;labelPosition=right;points=[];portConstraint=eastwest;strokeColor=#BAC8D3;labelBackgroundColor=none;fontColor=#EEEEEE;" parent="3fTQXvPOQ3stO39uD6o4-25" vertex="1">
          <mxGeometry y="312" width="320" height="8" as="geometry" />
        </mxCell>
        <mxCell id="3fTQXvPOQ3stO39uD6o4-33" value="ProductModel({name, ...})" style="text;strokeColor=none;fillColor=none;align=left;verticalAlign=top;spacingLeft=4;spacingRight=4;overflow=hidden;rotatable=0;points=[[0,0.5],[1,0.5]];portConstraint=eastwest;whiteSpace=wrap;html=1;labelBackgroundColor=none;fontColor=#EEEEEE;fontStyle=1" parent="3fTQXvPOQ3stO39uD6o4-25" vertex="1">
          <mxGeometry y="320" width="320" height="22" as="geometry" />
        </mxCell>
        <mxCell id="3fTQXvPOQ3stO39uD6o4-34" value="" style="line;strokeWidth=2;fillColor=#09555B;align=left;verticalAlign=middle;spacingTop=-1;spacingLeft=3;spacingRight=3;rotatable=0;labelPosition=right;points=[];portConstraint=eastwest;strokeColor=#BAC8D3;labelBackgroundColor=none;fontColor=#EEEEEE;" parent="3fTQXvPOQ3stO39uD6o4-25" vertex="1">
          <mxGeometry y="342" width="320" height="8" as="geometry" />
        </mxCell>
        <mxCell id="3fTQXvPOQ3stO39uD6o4-36" value="factory fromJson(Map&amp;lt;String, dynamic&amp;gt; json)" style="text;strokeColor=none;fillColor=none;align=left;verticalAlign=top;spacingLeft=4;spacingRight=4;overflow=hidden;rotatable=0;points=[[0,0.5],[1,0.5]];portConstraint=eastwest;whiteSpace=wrap;html=1;labelBackgroundColor=none;fontColor=#EEEEEE;" parent="3fTQXvPOQ3stO39uD6o4-25" vertex="1">
          <mxGeometry y="350" width="320" height="26" as="geometry" />
        </mxCell>
        <mxCell id="3fTQXvPOQ3stO39uD6o4-39" value="ItemModel" style="swimlane;fontStyle=1;align=center;verticalAlign=top;childLayout=stackLayout;horizontal=1;startSize=26;horizontalStack=0;resizeParent=1;resizeParentMax=0;resizeLast=0;collapsible=1;marginBottom=0;whiteSpace=wrap;html=1;labelBackgroundColor=none;fillColor=#09555B;strokeColor=#BAC8D3;fontColor=#EEEEEE;strokeWidth=2;" parent="WIyWlLk6GJQsqaUBKTNV-1" vertex="1">
          <mxGeometry x="920" y="480" width="340" height="324" as="geometry">
            <mxRectangle x="400" y="280" width="120" height="30" as="alternateBounds" />
          </mxGeometry>
        </mxCell>
        <mxCell id="3fTQXvPOQ3stO39uD6o4-41" value="shoppingId: String" style="text;strokeColor=none;fillColor=none;align=left;verticalAlign=top;spacingLeft=4;spacingRight=4;overflow=hidden;rotatable=0;points=[[0,0.5],[1,0.5]];portConstraint=eastwest;whiteSpace=wrap;html=1;labelBackgroundColor=none;fontColor=#EEEEEE;" parent="3fTQXvPOQ3stO39uD6o4-39" vertex="1">
          <mxGeometry y="26" width="340" height="26" as="geometry" />
        </mxCell>
        <mxCell id="3fTQXvPOQ3stO39uD6o4-40" value="productId: String" style="text;strokeColor=none;fillColor=none;align=left;verticalAlign=top;spacingLeft=4;spacingRight=4;overflow=hidden;rotatable=0;points=[[0,0.5],[1,0.5]];portConstraint=eastwest;whiteSpace=wrap;html=1;labelBackgroundColor=none;fontColor=#EEEEEE;" parent="3fTQXvPOQ3stO39uD6o4-39" vertex="1">
          <mxGeometry y="52" width="340" height="26" as="geometry" />
        </mxCell>
        <mxCell id="aOLVvD5tq7OIEiMkd7AQ-1" value="name: String" style="text;strokeColor=none;fillColor=none;align=left;verticalAlign=top;spacingLeft=4;spacingRight=4;overflow=hidden;rotatable=0;points=[[0,0.5],[1,0.5]];portConstraint=eastwest;whiteSpace=wrap;html=1;labelBackgroundColor=none;fontColor=#EEEEEE;" parent="3fTQXvPOQ3stO39uD6o4-39" vertex="1">
          <mxGeometry y="78" width="340" height="26" as="geometry" />
        </mxCell>
        <mxCell id="SM7ea6qoSSTbtUkmd5gZ-0" value="saleBy: SaleBy" style="text;strokeColor=none;fillColor=none;align=left;verticalAlign=top;spacingLeft=4;spacingRight=4;overflow=hidden;rotatable=0;points=[[0,0.5],[1,0.5]];portConstraint=eastwest;whiteSpace=wrap;html=1;labelBackgroundColor=none;fontColor=#EEEEEE;" parent="3fTQXvPOQ3stO39uD6o4-39" vertex="1">
          <mxGeometry y="104" width="340" height="26" as="geometry" />
        </mxCell>
        <mxCell id="3fTQXvPOQ3stO39uD6o4-44" value="unitPrice: int (em centavos ou centavos/Kg)" style="text;strokeColor=none;fillColor=none;align=left;verticalAlign=top;spacingLeft=4;spacingRight=4;overflow=hidden;rotatable=0;points=[[0,0.5],[1,0.5]];portConstraint=eastwest;whiteSpace=wrap;html=1;labelBackgroundColor=none;fontColor=#EEEEEE;" parent="3fTQXvPOQ3stO39uD6o4-39" vertex="1">
          <mxGeometry y="130" width="340" height="26" as="geometry" />
        </mxCell>
        <mxCell id="aOLVvD5tq7OIEiMkd7AQ-0" value="quantity: int (é a massa se isUnitPrice for false)" style="text;strokeColor=none;fillColor=none;align=left;verticalAlign=top;spacingLeft=4;spacingRight=4;overflow=hidden;rotatable=0;points=[[0,0.5],[1,0.5]];portConstraint=eastwest;whiteSpace=wrap;html=1;labelBackgroundColor=none;fontColor=#EEEEEE;" parent="3fTQXvPOQ3stO39uD6o4-39" vertex="1">
          <mxGeometry y="156" width="340" height="26" as="geometry" />
        </mxCell>
        <mxCell id="SM7ea6qoSSTbtUkmd5gZ-18" value="priceVariation: double" style="text;strokeColor=none;fillColor=none;align=left;verticalAlign=top;spacingLeft=4;spacingRight=4;overflow=hidden;rotatable=0;points=[[0,0.5],[1,0.5]];portConstraint=eastwest;whiteSpace=wrap;html=1;labelBackgroundColor=none;fontColor=#EEEEEE;" parent="3fTQXvPOQ3stO39uD6o4-39" vertex="1">
          <mxGeometry y="182" width="340" height="26" as="geometry" />
        </mxCell>
        <mxCell id="SM7ea6qoSSTbtUkmd5gZ-16" value="createdAt: DateTime" style="text;strokeColor=none;fillColor=none;align=left;verticalAlign=top;spacingLeft=4;spacingRight=4;overflow=hidden;rotatable=0;points=[[0,0.5],[1,0.5]];portConstraint=eastwest;whiteSpace=wrap;html=1;labelBackgroundColor=none;fontColor=#EEEEEE;" parent="3fTQXvPOQ3stO39uD6o4-39" vertex="1">
          <mxGeometry y="208" width="340" height="26" as="geometry" />
        </mxCell>
        <mxCell id="3fTQXvPOQ3stO39uD6o4-47" value="" style="line;strokeWidth=2;fillColor=#09555B;align=left;verticalAlign=middle;spacingTop=-1;spacingLeft=3;spacingRight=3;rotatable=0;labelPosition=right;points=[];portConstraint=eastwest;strokeColor=#BAC8D3;labelBackgroundColor=none;fontColor=#EEEEEE;" parent="3fTQXvPOQ3stO39uD6o4-39" vertex="1">
          <mxGeometry y="234" width="340" height="8" as="geometry" />
        </mxCell>
        <mxCell id="3fTQXvPOQ3stO39uD6o4-48" value="ItemModel({shoppingId, ...})" style="text;strokeColor=none;fillColor=none;align=left;verticalAlign=top;spacingLeft=4;spacingRight=4;overflow=hidden;rotatable=0;points=[[0,0.5],[1,0.5]];portConstraint=eastwest;whiteSpace=wrap;html=1;labelBackgroundColor=none;fontColor=#EEEEEE;fontStyle=1" parent="3fTQXvPOQ3stO39uD6o4-39" vertex="1">
          <mxGeometry y="242" width="340" height="22" as="geometry" />
        </mxCell>
        <mxCell id="3fTQXvPOQ3stO39uD6o4-49" value="" style="line;strokeWidth=2;fillColor=#09555B;align=left;verticalAlign=middle;spacingTop=-1;spacingLeft=3;spacingRight=3;rotatable=0;labelPosition=right;points=[];portConstraint=eastwest;strokeColor=#BAC8D3;labelBackgroundColor=none;fontColor=#EEEEEE;" parent="3fTQXvPOQ3stO39uD6o4-39" vertex="1">
          <mxGeometry y="264" width="340" height="8" as="geometry" />
        </mxCell>
        <mxCell id="3fTQXvPOQ3stO39uD6o4-51" value="factory fromJson(Map&amp;lt;String, dynamic&amp;gt; json)" style="text;strokeColor=none;fillColor=none;align=left;verticalAlign=top;spacingLeft=4;spacingRight=4;overflow=hidden;rotatable=0;points=[[0,0.5],[1,0.5]];portConstraint=eastwest;whiteSpace=wrap;html=1;labelBackgroundColor=none;fontColor=#EEEEEE;" parent="3fTQXvPOQ3stO39uD6o4-39" vertex="1">
          <mxGeometry y="272" width="340" height="26" as="geometry" />
        </mxCell>
        <mxCell id="r_Byp0ACBqwPXMdRDk11-56" value="factory fromCartItemDto(String? productId, CartItemDto dto)" style="text;strokeColor=none;fillColor=none;align=left;verticalAlign=top;spacingLeft=4;spacingRight=4;overflow=hidden;rotatable=0;points=[[0,0.5],[1,0.5]];portConstraint=eastwest;whiteSpace=wrap;html=1;labelBackgroundColor=none;fontColor=#EEEEEE;" parent="3fTQXvPOQ3stO39uD6o4-39" vertex="1">
          <mxGeometry y="298" width="340" height="26" as="geometry" />
        </mxCell>
        <mxCell id="3fTQXvPOQ3stO39uD6o4-52" style="edgeStyle=orthogonalEdgeStyle;rounded=0;orthogonalLoop=1;jettySize=auto;html=1;strokeWidth=2;strokeColor=#7EA6E0;exitX=1;exitY=0.5;exitDx=0;exitDy=0;labelBackgroundColor=none;fontColor=default;" parent="WIyWlLk6GJQsqaUBKTNV-1" source="yGnjX18Ffy-fiD3lzH0s-17" target="3fTQXvPOQ3stO39uD6o4-40" edge="1">
          <mxGeometry relative="1" as="geometry" />
        </mxCell>
        <mxCell id="yGnjX18Ffy-fiD3lzH0s-27" style="edgeStyle=orthogonalEdgeStyle;rounded=0;orthogonalLoop=1;jettySize=auto;html=1;strokeWidth=2;strokeColor=#67AB9F;entryX=0;entryY=0.5;entryDx=0;entryDy=0;labelBackgroundColor=none;fontColor=default;" parent="WIyWlLk6GJQsqaUBKTNV-1" source="yGnjX18Ffy-fiD3lzH0s-1" target="3fTQXvPOQ3stO39uD6o4-41" edge="1">
          <mxGeometry relative="1" as="geometry">
            <mxPoint x="568" y="300" as="targetPoint" />
            <Array as="points">
              <mxPoint x="880" y="329" />
              <mxPoint x="880" y="519" />
            </Array>
          </mxGeometry>
        </mxCell>
        <mxCell id="SM7ea6qoSSTbtUkmd5gZ-3" value="LastPriceModel" style="swimlane;fontStyle=1;align=center;verticalAlign=top;childLayout=stackLayout;horizontal=1;startSize=26;horizontalStack=0;resizeParent=1;resizeParentMax=0;resizeLast=0;collapsible=1;marginBottom=0;whiteSpace=wrap;html=1;labelBackgroundColor=none;fillColor=#09555B;strokeColor=#BAC8D3;fontColor=#EEEEEE;strokeWidth=2;" parent="WIyWlLk6GJQsqaUBKTNV-1" vertex="1">
          <mxGeometry x="920" y="880" width="340" height="272" as="geometry">
            <mxRectangle x="400" y="280" width="120" height="30" as="alternateBounds" />
          </mxGeometry>
        </mxCell>
        <mxCell id="SM7ea6qoSSTbtUkmd5gZ-15" value="id: String" style="text;strokeColor=none;fillColor=none;align=left;verticalAlign=top;spacingLeft=4;spacingRight=4;overflow=hidden;rotatable=0;points=[[0,0.5],[1,0.5]];portConstraint=eastwest;whiteSpace=wrap;html=1;labelBackgroundColor=none;fontColor=#EEEEEE;" parent="SM7ea6qoSSTbtUkmd5gZ-3" vertex="1">
          <mxGeometry y="26" width="340" height="26" as="geometry" />
        </mxCell>
        <mxCell id="tl7FGvJi0LViQqiW_1lb-1" value="shoppingId: String" style="text;strokeColor=none;fillColor=none;align=left;verticalAlign=top;spacingLeft=4;spacingRight=4;overflow=hidden;rotatable=0;points=[[0,0.5],[1,0.5]];portConstraint=eastwest;whiteSpace=wrap;html=1;labelBackgroundColor=none;fontColor=#EEEEEE;" parent="SM7ea6qoSSTbtUkmd5gZ-3" vertex="1">
          <mxGeometry y="52" width="340" height="26" as="geometry" />
        </mxCell>
        <mxCell id="SM7ea6qoSSTbtUkmd5gZ-5" value="productId: String" style="text;strokeColor=none;fillColor=none;align=left;verticalAlign=top;spacingLeft=4;spacingRight=4;overflow=hidden;rotatable=0;points=[[0,0.5],[1,0.5]];portConstraint=eastwest;whiteSpace=wrap;html=1;labelBackgroundColor=none;fontColor=#EEEEEE;" parent="SM7ea6qoSSTbtUkmd5gZ-3" vertex="1">
          <mxGeometry y="78" width="340" height="26" as="geometry" />
        </mxCell>
        <mxCell id="SM7ea6qoSSTbtUkmd5gZ-7" value="lastUnitPrice: int (em centavos ou centavos/Kg)" style="text;strokeColor=none;fillColor=none;align=left;verticalAlign=top;spacingLeft=4;spacingRight=4;overflow=hidden;rotatable=0;points=[[0,0.5],[1,0.5]];portConstraint=eastwest;whiteSpace=wrap;html=1;labelBackgroundColor=none;fontColor=#EEEEEE;" parent="SM7ea6qoSSTbtUkmd5gZ-3" vertex="1">
          <mxGeometry y="104" width="340" height="26" as="geometry" />
        </mxCell>
        <mxCell id="SM7ea6qoSSTbtUkmd5gZ-6" value="saleBy: SaleBy" style="text;strokeColor=none;fillColor=none;align=left;verticalAlign=top;spacingLeft=4;spacingRight=4;overflow=hidden;rotatable=0;points=[[0,0.5],[1,0.5]];portConstraint=eastwest;whiteSpace=wrap;html=1;labelBackgroundColor=none;fontColor=#EEEEEE;" parent="SM7ea6qoSSTbtUkmd5gZ-3" vertex="1">
          <mxGeometry y="130" width="340" height="26" as="geometry" />
        </mxCell>
        <mxCell id="SM7ea6qoSSTbtUkmd5gZ-14" value="createdAt: DateTime" style="text;strokeColor=none;fillColor=none;align=left;verticalAlign=top;spacingLeft=4;spacingRight=4;overflow=hidden;rotatable=0;points=[[0,0.5],[1,0.5]];portConstraint=eastwest;whiteSpace=wrap;html=1;labelBackgroundColor=none;fontColor=#EEEEEE;" parent="SM7ea6qoSSTbtUkmd5gZ-3" vertex="1">
          <mxGeometry y="156" width="340" height="26" as="geometry" />
        </mxCell>
        <mxCell id="SM7ea6qoSSTbtUkmd5gZ-9" value="" style="line;strokeWidth=2;fillColor=#09555B;align=left;verticalAlign=middle;spacingTop=-1;spacingLeft=3;spacingRight=3;rotatable=0;labelPosition=right;points=[];portConstraint=eastwest;strokeColor=#BAC8D3;labelBackgroundColor=none;fontColor=#EEEEEE;" parent="SM7ea6qoSSTbtUkmd5gZ-3" vertex="1">
          <mxGeometry y="182" width="340" height="8" as="geometry" />
        </mxCell>
        <mxCell id="SM7ea6qoSSTbtUkmd5gZ-10" value="LastPriceModel({id, ...})" style="text;strokeColor=none;fillColor=none;align=left;verticalAlign=top;spacingLeft=4;spacingRight=4;overflow=hidden;rotatable=0;points=[[0,0.5],[1,0.5]];portConstraint=eastwest;whiteSpace=wrap;html=1;labelBackgroundColor=none;fontColor=#EEEEEE;fontStyle=1" parent="SM7ea6qoSSTbtUkmd5gZ-3" vertex="1">
          <mxGeometry y="190" width="340" height="22" as="geometry" />
        </mxCell>
        <mxCell id="SM7ea6qoSSTbtUkmd5gZ-11" value="" style="line;strokeWidth=2;fillColor=#09555B;align=left;verticalAlign=middle;spacingTop=-1;spacingLeft=3;spacingRight=3;rotatable=0;labelPosition=right;points=[];portConstraint=eastwest;strokeColor=#BAC8D3;labelBackgroundColor=none;fontColor=#EEEEEE;" parent="SM7ea6qoSSTbtUkmd5gZ-3" vertex="1">
          <mxGeometry y="212" width="340" height="8" as="geometry" />
        </mxCell>
        <mxCell id="SM7ea6qoSSTbtUkmd5gZ-33" value="factory fromDto(String id, &lt;b&gt;LastPriceDto dto&lt;/b&gt;)" style="text;strokeColor=none;fillColor=none;align=left;verticalAlign=top;spacingLeft=4;spacingRight=4;overflow=hidden;rotatable=0;points=[[0,0.5],[1,0.5]];portConstraint=eastwest;whiteSpace=wrap;html=1;labelBackgroundColor=none;fontColor=#EEEEEE;" parent="SM7ea6qoSSTbtUkmd5gZ-3" vertex="1">
          <mxGeometry y="220" width="340" height="26" as="geometry" />
        </mxCell>
        <mxCell id="SM7ea6qoSSTbtUkmd5gZ-12" value="factory fromJson(Map&amp;lt;String, dynamic&amp;gt; json)" style="text;strokeColor=none;fillColor=none;align=left;verticalAlign=top;spacingLeft=4;spacingRight=4;overflow=hidden;rotatable=0;points=[[0,0.5],[1,0.5]];portConstraint=eastwest;whiteSpace=wrap;html=1;labelBackgroundColor=none;fontColor=#EEEEEE;" parent="SM7ea6qoSSTbtUkmd5gZ-3" vertex="1">
          <mxGeometry y="246" width="340" height="26" as="geometry" />
        </mxCell>
        <mxCell id="SM7ea6qoSSTbtUkmd5gZ-13" style="edgeStyle=orthogonalEdgeStyle;rounded=0;orthogonalLoop=1;jettySize=auto;html=1;strokeWidth=2;strokeColor=#7EA6E0;labelBackgroundColor=none;fontColor=default;" parent="WIyWlLk6GJQsqaUBKTNV-1" source="yGnjX18Ffy-fiD3lzH0s-17" target="SM7ea6qoSSTbtUkmd5gZ-5" edge="1">
          <mxGeometry relative="1" as="geometry">
            <mxPoint x="820" y="660" as="sourcePoint" />
            <mxPoint x="908" y="553" as="targetPoint" />
          </mxGeometry>
        </mxCell>
        <mxCell id="SM7ea6qoSSTbtUkmd5gZ-23" value="LastPriceDto" style="swimlane;fontStyle=1;align=center;verticalAlign=top;childLayout=stackLayout;horizontal=1;startSize=26;horizontalStack=0;resizeParent=1;resizeParentMax=0;resizeLast=0;collapsible=1;marginBottom=0;whiteSpace=wrap;html=1;labelBackgroundColor=none;fillColor=#09555B;strokeColor=#BAC8D3;fontColor=#EEEEEE;strokeWidth=2;" parent="WIyWlLk6GJQsqaUBKTNV-1" vertex="1">
          <mxGeometry x="480" y="1060" width="320" height="220" as="geometry">
            <mxRectangle x="400" y="280" width="120" height="30" as="alternateBounds" />
          </mxGeometry>
        </mxCell>
        <mxCell id="SM7ea6qoSSTbtUkmd5gZ-25" value="productId: String" style="text;strokeColor=none;fillColor=none;align=left;verticalAlign=top;spacingLeft=4;spacingRight=4;overflow=hidden;rotatable=0;points=[[0,0.5],[1,0.5]];portConstraint=eastwest;whiteSpace=wrap;html=1;labelBackgroundColor=none;fontColor=#EEEEEE;" parent="SM7ea6qoSSTbtUkmd5gZ-23" vertex="1">
          <mxGeometry y="26" width="320" height="26" as="geometry" />
        </mxCell>
        <mxCell id="tl7FGvJi0LViQqiW_1lb-0" value="shoppingId: String" style="text;strokeColor=none;fillColor=none;align=left;verticalAlign=top;spacingLeft=4;spacingRight=4;overflow=hidden;rotatable=0;points=[[0,0.5],[1,0.5]];portConstraint=eastwest;whiteSpace=wrap;html=1;labelBackgroundColor=none;fontColor=#EEEEEE;" parent="SM7ea6qoSSTbtUkmd5gZ-23" vertex="1">
          <mxGeometry y="52" width="320" height="26" as="geometry" />
        </mxCell>
        <mxCell id="2GeXezmI1lT7xW8D0i3s-9" value="saleBy: SaleBy" style="text;strokeColor=none;fillColor=none;align=left;verticalAlign=top;spacingLeft=4;spacingRight=4;overflow=hidden;rotatable=0;points=[[0,0.5],[1,0.5]];portConstraint=eastwest;whiteSpace=wrap;html=1;labelBackgroundColor=none;fontColor=#EEEEEE;" parent="SM7ea6qoSSTbtUkmd5gZ-23" vertex="1">
          <mxGeometry y="78" width="320" height="26" as="geometry" />
        </mxCell>
        <mxCell id="SM7ea6qoSSTbtUkmd5gZ-27" value="lastPrice: int (em centavos ou centavos/Kg)" style="text;strokeColor=none;fillColor=none;align=left;verticalAlign=top;spacingLeft=4;spacingRight=4;overflow=hidden;rotatable=0;points=[[0,0.5],[1,0.5]];portConstraint=eastwest;whiteSpace=wrap;html=1;labelBackgroundColor=none;fontColor=#EEEEEE;" parent="SM7ea6qoSSTbtUkmd5gZ-23" vertex="1">
          <mxGeometry y="104" width="320" height="26" as="geometry" />
        </mxCell>
        <mxCell id="SM7ea6qoSSTbtUkmd5gZ-28" value="createdAt: DateTime" style="text;strokeColor=none;fillColor=none;align=left;verticalAlign=top;spacingLeft=4;spacingRight=4;overflow=hidden;rotatable=0;points=[[0,0.5],[1,0.5]];portConstraint=eastwest;whiteSpace=wrap;html=1;labelBackgroundColor=none;fontColor=#EEEEEE;" parent="SM7ea6qoSSTbtUkmd5gZ-23" vertex="1">
          <mxGeometry y="130" width="320" height="26" as="geometry" />
        </mxCell>
        <mxCell id="SM7ea6qoSSTbtUkmd5gZ-29" value="" style="line;strokeWidth=2;fillColor=#09555B;align=left;verticalAlign=middle;spacingTop=-1;spacingLeft=3;spacingRight=3;rotatable=0;labelPosition=right;points=[];portConstraint=eastwest;strokeColor=#BAC8D3;labelBackgroundColor=none;fontColor=#EEEEEE;" parent="SM7ea6qoSSTbtUkmd5gZ-23" vertex="1">
          <mxGeometry y="156" width="320" height="8" as="geometry" />
        </mxCell>
        <mxCell id="SM7ea6qoSSTbtUkmd5gZ-30" value="LastPriceDto({productId, ...})" style="text;strokeColor=none;fillColor=none;align=left;verticalAlign=top;spacingLeft=4;spacingRight=4;overflow=hidden;rotatable=0;points=[[0,0.5],[1,0.5]];portConstraint=eastwest;whiteSpace=wrap;html=1;labelBackgroundColor=none;fontColor=#EEEEEE;fontStyle=1" parent="SM7ea6qoSSTbtUkmd5gZ-23" vertex="1">
          <mxGeometry y="164" width="320" height="22" as="geometry" />
        </mxCell>
        <mxCell id="SM7ea6qoSSTbtUkmd5gZ-31" value="" style="line;strokeWidth=2;fillColor=#09555B;align=left;verticalAlign=middle;spacingTop=-1;spacingLeft=3;spacingRight=3;rotatable=0;labelPosition=right;points=[];portConstraint=eastwest;strokeColor=#BAC8D3;labelBackgroundColor=none;fontColor=#EEEEEE;" parent="SM7ea6qoSSTbtUkmd5gZ-23" vertex="1">
          <mxGeometry y="186" width="320" height="8" as="geometry" />
        </mxCell>
        <mxCell id="SM7ea6qoSSTbtUkmd5gZ-32" value="factory fromJson(Map&amp;lt;String, dynamic&amp;gt; json)" style="text;strokeColor=none;fillColor=none;align=left;verticalAlign=top;spacingLeft=4;spacingRight=4;overflow=hidden;rotatable=0;points=[[0,0.5],[1,0.5]];portConstraint=eastwest;whiteSpace=wrap;html=1;labelBackgroundColor=none;fontColor=#EEEEEE;" parent="SM7ea6qoSSTbtUkmd5gZ-23" vertex="1">
          <mxGeometry y="194" width="320" height="26" as="geometry" />
        </mxCell>
        <mxCell id="SM7ea6qoSSTbtUkmd5gZ-34" style="edgeStyle=orthogonalEdgeStyle;rounded=0;orthogonalLoop=1;jettySize=auto;html=1;strokeWidth=2;dashed=1;exitX=1;exitY=0.5;exitDx=0;exitDy=0;labelBackgroundColor=none;strokeColor=#0B4D6A;fontColor=default;" parent="WIyWlLk6GJQsqaUBKTNV-1" source="SM7ea6qoSSTbtUkmd5gZ-27" target="SM7ea6qoSSTbtUkmd5gZ-33" edge="1">
          <mxGeometry relative="1" as="geometry">
            <mxPoint x="969.75" y="1020" as="sourcePoint" />
            <mxPoint x="1049.75" y="1130" as="targetPoint" />
          </mxGeometry>
        </mxCell>
        <mxCell id="r_Byp0ACBqwPXMdRDk11-0" value="CartItemDto" style="swimlane;fontStyle=1;align=center;verticalAlign=top;childLayout=stackLayout;horizontal=1;startSize=26;horizontalStack=0;resizeParent=1;resizeParentMax=0;resizeLast=0;collapsible=1;marginBottom=0;whiteSpace=wrap;html=1;labelBackgroundColor=none;fillColor=#09555B;strokeColor=#BAC8D3;fontColor=#EEEEEE;strokeWidth=2;" parent="WIyWlLk6GJQsqaUBKTNV-1" vertex="1">
          <mxGeometry x="80" y="1030" width="320" height="402" as="geometry">
            <mxRectangle x="400" y="280" width="120" height="30" as="alternateBounds" />
          </mxGeometry>
        </mxCell>
        <mxCell id="r_Byp0ACBqwPXMdRDk11-1" value="shoppingId: String" style="text;strokeColor=none;fillColor=none;align=left;verticalAlign=top;spacingLeft=4;spacingRight=4;overflow=hidden;rotatable=0;points=[[0,0.5],[1,0.5]];portConstraint=eastwest;whiteSpace=wrap;html=1;labelBackgroundColor=none;fontColor=#EEEEEE;" parent="r_Byp0ACBqwPXMdRDk11-0" vertex="1">
          <mxGeometry y="26" width="320" height="26" as="geometry" />
        </mxCell>
        <mxCell id="r_Byp0ACBqwPXMdRDk11-19" value="productId: String?" style="text;strokeColor=none;fillColor=none;align=left;verticalAlign=top;spacingLeft=4;spacingRight=4;overflow=hidden;rotatable=0;points=[[0,0.5],[1,0.5]];portConstraint=eastwest;whiteSpace=wrap;html=1;labelBackgroundColor=none;fontColor=#EEEEEE;" parent="r_Byp0ACBqwPXMdRDk11-0" vertex="1">
          <mxGeometry y="52" width="320" height="26" as="geometry" />
        </mxCell>
        <mxCell id="r_Byp0ACBqwPXMdRDk11-2" value="name: String" style="text;strokeColor=none;fillColor=none;align=left;verticalAlign=top;spacingLeft=4;spacingRight=4;overflow=hidden;rotatable=0;points=[[0,0.5],[1,0.5]];portConstraint=eastwest;whiteSpace=wrap;html=1;labelBackgroundColor=none;fontColor=#EEEEEE;" parent="r_Byp0ACBqwPXMdRDk11-0" vertex="1">
          <mxGeometry y="78" width="320" height="26" as="geometry" />
        </mxCell>
        <mxCell id="r_Byp0ACBqwPXMdRDk11-3" value="description: String" style="text;strokeColor=none;fillColor=none;align=left;verticalAlign=top;spacingLeft=4;spacingRight=4;overflow=hidden;rotatable=0;points=[[0,0.5],[1,0.5]];portConstraint=eastwest;whiteSpace=wrap;html=1;labelBackgroundColor=none;fontColor=#EEEEEE;" parent="r_Byp0ACBqwPXMdRDk11-0" vertex="1">
          <mxGeometry y="104" width="320" height="26" as="geometry" />
        </mxCell>
        <mxCell id="r_Byp0ACBqwPXMdRDk11-4" value="barCode: String" style="text;strokeColor=none;fillColor=none;align=left;verticalAlign=top;spacingLeft=4;spacingRight=4;overflow=hidden;rotatable=0;points=[[0,0.5],[1,0.5]];portConstraint=eastwest;whiteSpace=wrap;html=1;labelBackgroundColor=none;fontColor=#EEEEEE;" parent="r_Byp0ACBqwPXMdRDk11-0" vertex="1">
          <mxGeometry y="130" width="320" height="26" as="geometry" />
        </mxCell>
        <mxCell id="r_Byp0ACBqwPXMdRDk11-5" value="saleBy: SaleBy" style="text;strokeColor=none;fillColor=none;align=left;verticalAlign=top;spacingLeft=4;spacingRight=4;overflow=hidden;rotatable=0;points=[[0,0.5],[1,0.5]];portConstraint=eastwest;whiteSpace=wrap;html=1;labelBackgroundColor=none;fontColor=#EEEEEE;" parent="r_Byp0ACBqwPXMdRDk11-0" vertex="1">
          <mxGeometry y="156" width="320" height="26" as="geometry" />
        </mxCell>
        <mxCell id="r_Byp0ACBqwPXMdRDk11-6" value="categoryId: String" style="text;strokeColor=none;fillColor=none;align=left;verticalAlign=top;spacingLeft=4;spacingRight=4;overflow=hidden;rotatable=0;points=[[0,0.5],[1,0.5]];portConstraint=eastwest;whiteSpace=wrap;html=1;labelBackgroundColor=none;fontColor=#EEEEEE;" parent="r_Byp0ACBqwPXMdRDk11-0" vertex="1">
          <mxGeometry y="182" width="320" height="26" as="geometry" />
        </mxCell>
        <mxCell id="r_Byp0ACBqwPXMdRDk11-7" value="category: String" style="text;strokeColor=none;fillColor=none;align=left;verticalAlign=top;spacingLeft=4;spacingRight=4;overflow=hidden;rotatable=0;points=[[0,0.5],[1,0.5]];portConstraint=eastwest;whiteSpace=wrap;html=1;labelBackgroundColor=none;fontColor=#EEEEEE;" parent="r_Byp0ACBqwPXMdRDk11-0" vertex="1">
          <mxGeometry y="208" width="320" height="26" as="geometry" />
        </mxCell>
        <mxCell id="r_Byp0ACBqwPXMdRDk11-8" value="subCategoryId: String" style="text;strokeColor=none;fillColor=none;align=left;verticalAlign=top;spacingLeft=4;spacingRight=4;overflow=hidden;rotatable=0;points=[[0,0.5],[1,0.5]];portConstraint=eastwest;whiteSpace=wrap;html=1;labelBackgroundColor=none;fontColor=#EEEEEE;" parent="r_Byp0ACBqwPXMdRDk11-0" vertex="1">
          <mxGeometry y="234" width="320" height="26" as="geometry" />
        </mxCell>
        <mxCell id="r_Byp0ACBqwPXMdRDk11-9" value="subCategory: String" style="text;strokeColor=none;fillColor=none;align=left;verticalAlign=top;spacingLeft=4;spacingRight=4;overflow=hidden;rotatable=0;points=[[0,0.5],[1,0.5]];portConstraint=eastwest;whiteSpace=wrap;html=1;labelBackgroundColor=none;fontColor=#EEEEEE;" parent="r_Byp0ACBqwPXMdRDk11-0" vertex="1">
          <mxGeometry y="260" width="320" height="26" as="geometry" />
        </mxCell>
        <mxCell id="r_Byp0ACBqwPXMdRDk11-10" value="price: int (em centavos)" style="text;strokeColor=none;fillColor=none;align=left;verticalAlign=top;spacingLeft=4;spacingRight=4;overflow=hidden;rotatable=0;points=[[0,0.5],[1,0.5]];portConstraint=eastwest;whiteSpace=wrap;html=1;labelBackgroundColor=none;fontColor=#EEEEEE;" parent="r_Byp0ACBqwPXMdRDk11-0" vertex="1">
          <mxGeometry y="286" width="320" height="26" as="geometry" />
        </mxCell>
        <mxCell id="r_Byp0ACBqwPXMdRDk11-11" value="quantity: int (unidade/gramas se saleBy = SaleBy.weight)" style="text;strokeColor=none;fillColor=none;align=left;verticalAlign=top;spacingLeft=4;spacingRight=4;overflow=hidden;rotatable=0;points=[[0,0.5],[1,0.5]];portConstraint=eastwest;whiteSpace=wrap;html=1;labelBackgroundColor=none;fontColor=#EEEEEE;" parent="r_Byp0ACBqwPXMdRDk11-0" vertex="1">
          <mxGeometry y="312" width="320" height="26" as="geometry" />
        </mxCell>
        <mxCell id="r_Byp0ACBqwPXMdRDk11-12" value="" style="line;strokeWidth=2;fillColor=#09555B;align=left;verticalAlign=middle;spacingTop=-1;spacingLeft=3;spacingRight=3;rotatable=0;labelPosition=right;points=[];portConstraint=eastwest;strokeColor=#BAC8D3;labelBackgroundColor=none;fontColor=#EEEEEE;" parent="r_Byp0ACBqwPXMdRDk11-0" vertex="1">
          <mxGeometry y="338" width="320" height="8" as="geometry" />
        </mxCell>
        <mxCell id="r_Byp0ACBqwPXMdRDk11-13" value="CartItemDto({shoppingId, ...})" style="text;strokeColor=none;fillColor=none;align=left;verticalAlign=top;spacingLeft=4;spacingRight=4;overflow=hidden;rotatable=0;points=[[0,0.5],[1,0.5]];portConstraint=eastwest;whiteSpace=wrap;html=1;labelBackgroundColor=none;fontColor=#EEEEEE;fontStyle=1" parent="r_Byp0ACBqwPXMdRDk11-0" vertex="1">
          <mxGeometry y="346" width="320" height="22" as="geometry" />
        </mxCell>
        <mxCell id="r_Byp0ACBqwPXMdRDk11-14" value="" style="line;strokeWidth=2;fillColor=#09555B;align=left;verticalAlign=middle;spacingTop=-1;spacingLeft=3;spacingRight=3;rotatable=0;labelPosition=right;points=[];portConstraint=eastwest;strokeColor=#BAC8D3;labelBackgroundColor=none;fontColor=#EEEEEE;" parent="r_Byp0ACBqwPXMdRDk11-0" vertex="1">
          <mxGeometry y="368" width="320" height="8" as="geometry" />
        </mxCell>
        <mxCell id="r_Byp0ACBqwPXMdRDk11-49" value="factory fromJson(Map&amp;lt;String, dynamic&amp;gt; json)" style="text;strokeColor=none;fillColor=none;align=left;verticalAlign=top;spacingLeft=4;spacingRight=4;overflow=hidden;rotatable=0;points=[[0,0.5],[1,0.5]];portConstraint=eastwest;whiteSpace=wrap;html=1;labelBackgroundColor=none;fontColor=#EEEEEE;" parent="r_Byp0ACBqwPXMdRDk11-0" vertex="1">
          <mxGeometry y="376" width="320" height="26" as="geometry" />
        </mxCell>
        <mxCell id="r_Byp0ACBqwPXMdRDk11-20" value="CategoryModel" style="swimlane;fontStyle=1;align=center;verticalAlign=top;childLayout=stackLayout;horizontal=1;startSize=26;horizontalStack=0;resizeParent=1;resizeParentMax=0;resizeLast=0;collapsible=1;marginBottom=0;whiteSpace=wrap;html=1;labelBackgroundColor=none;fillColor=#09555B;strokeColor=#BAC8D3;fontColor=#EEEEEE;strokeWidth=2;" parent="WIyWlLk6GJQsqaUBKTNV-1" vertex="1">
          <mxGeometry x="920" y="1160" width="340" height="142" as="geometry">
            <mxRectangle x="400" y="280" width="120" height="30" as="alternateBounds" />
          </mxGeometry>
        </mxCell>
        <mxCell id="r_Byp0ACBqwPXMdRDk11-21" value="id: String" style="text;strokeColor=none;fillColor=none;align=left;verticalAlign=top;spacingLeft=4;spacingRight=4;overflow=hidden;rotatable=0;points=[[0,0.5],[1,0.5]];portConstraint=eastwest;whiteSpace=wrap;html=1;labelBackgroundColor=none;fontColor=#EEEEEE;" parent="r_Byp0ACBqwPXMdRDk11-20" vertex="1">
          <mxGeometry y="26" width="340" height="26" as="geometry" />
        </mxCell>
        <mxCell id="r_Byp0ACBqwPXMdRDk11-23" value="name: String" style="text;strokeColor=none;fillColor=none;align=left;verticalAlign=top;spacingLeft=4;spacingRight=4;overflow=hidden;rotatable=0;points=[[0,0.5],[1,0.5]];portConstraint=eastwest;whiteSpace=wrap;html=1;labelBackgroundColor=none;fontColor=#EEEEEE;" parent="r_Byp0ACBqwPXMdRDk11-20" vertex="1">
          <mxGeometry y="52" width="340" height="26" as="geometry" />
        </mxCell>
        <mxCell id="r_Byp0ACBqwPXMdRDk11-29" value="" style="line;strokeWidth=2;fillColor=#09555B;align=left;verticalAlign=middle;spacingTop=-1;spacingLeft=3;spacingRight=3;rotatable=0;labelPosition=right;points=[];portConstraint=eastwest;strokeColor=#BAC8D3;labelBackgroundColor=none;fontColor=#EEEEEE;" parent="r_Byp0ACBqwPXMdRDk11-20" vertex="1">
          <mxGeometry y="78" width="340" height="8" as="geometry" />
        </mxCell>
        <mxCell id="r_Byp0ACBqwPXMdRDk11-30" value="CategoryModel(id, ...)" style="text;strokeColor=none;fillColor=none;align=left;verticalAlign=top;spacingLeft=4;spacingRight=4;overflow=hidden;rotatable=0;points=[[0,0.5],[1,0.5]];portConstraint=eastwest;whiteSpace=wrap;html=1;labelBackgroundColor=none;fontColor=#EEEEEE;fontStyle=1" parent="r_Byp0ACBqwPXMdRDk11-20" vertex="1">
          <mxGeometry y="86" width="340" height="22" as="geometry" />
        </mxCell>
        <mxCell id="r_Byp0ACBqwPXMdRDk11-31" value="" style="line;strokeWidth=2;fillColor=#09555B;align=left;verticalAlign=middle;spacingTop=-1;spacingLeft=3;spacingRight=3;rotatable=0;labelPosition=right;points=[];portConstraint=eastwest;strokeColor=#BAC8D3;labelBackgroundColor=none;fontColor=#EEEEEE;" parent="r_Byp0ACBqwPXMdRDk11-20" vertex="1">
          <mxGeometry y="108" width="340" height="8" as="geometry" />
        </mxCell>
        <mxCell id="r_Byp0ACBqwPXMdRDk11-51" value="factory fromJson(Map&amp;lt;String, dynamic&amp;gt; json)" style="text;strokeColor=none;fillColor=none;align=left;verticalAlign=top;spacingLeft=4;spacingRight=4;overflow=hidden;rotatable=0;points=[[0,0.5],[1,0.5]];portConstraint=eastwest;whiteSpace=wrap;html=1;labelBackgroundColor=none;fontColor=#EEEEEE;" parent="r_Byp0ACBqwPXMdRDk11-20" vertex="1">
          <mxGeometry y="116" width="340" height="26" as="geometry" />
        </mxCell>
        <mxCell id="r_Byp0ACBqwPXMdRDk11-33" value="SubCategoryModel" style="swimlane;fontStyle=1;align=center;verticalAlign=top;childLayout=stackLayout;horizontal=1;startSize=26;horizontalStack=0;resizeParent=1;resizeParentMax=0;resizeLast=0;collapsible=1;marginBottom=0;whiteSpace=wrap;html=1;labelBackgroundColor=none;fillColor=#09555B;strokeColor=#BAC8D3;fontColor=#EEEEEE;strokeWidth=2;" parent="WIyWlLk6GJQsqaUBKTNV-1" vertex="1">
          <mxGeometry x="1320" y="1070" width="270" height="196" as="geometry">
            <mxRectangle x="400" y="280" width="120" height="30" as="alternateBounds" />
          </mxGeometry>
        </mxCell>
        <mxCell id="r_Byp0ACBqwPXMdRDk11-34" value="id: String" style="text;strokeColor=none;fillColor=none;align=left;verticalAlign=top;spacingLeft=4;spacingRight=4;overflow=hidden;rotatable=0;points=[[0,0.5],[1,0.5]];portConstraint=eastwest;whiteSpace=wrap;html=1;labelBackgroundColor=none;fontColor=#EEEEEE;" parent="r_Byp0ACBqwPXMdRDk11-33" vertex="1">
          <mxGeometry y="26" width="270" height="26" as="geometry" />
        </mxCell>
        <mxCell id="r_Byp0ACBqwPXMdRDk11-39" value="categoryId: String" style="text;strokeColor=none;fillColor=none;align=left;verticalAlign=top;spacingLeft=4;spacingRight=4;overflow=hidden;rotatable=0;points=[[0,0.5],[1,0.5]];portConstraint=eastwest;whiteSpace=wrap;html=1;labelBackgroundColor=none;fontColor=#EEEEEE;" parent="r_Byp0ACBqwPXMdRDk11-33" vertex="1">
          <mxGeometry y="52" width="270" height="26" as="geometry" />
        </mxCell>
        <mxCell id="r_Byp0ACBqwPXMdRDk11-35" value="name: String" style="text;strokeColor=none;fillColor=none;align=left;verticalAlign=top;spacingLeft=4;spacingRight=4;overflow=hidden;rotatable=0;points=[[0,0.5],[1,0.5]];portConstraint=eastwest;whiteSpace=wrap;html=1;labelBackgroundColor=none;fontColor=#EEEEEE;" parent="r_Byp0ACBqwPXMdRDk11-33" vertex="1">
          <mxGeometry y="78" width="270" height="26" as="geometry" />
        </mxCell>
        <mxCell id="r_Byp0ACBqwPXMdRDk11-36" value="" style="line;strokeWidth=2;fillColor=#09555B;align=left;verticalAlign=middle;spacingTop=-1;spacingLeft=3;spacingRight=3;rotatable=0;labelPosition=right;points=[];portConstraint=eastwest;strokeColor=#BAC8D3;labelBackgroundColor=none;fontColor=#EEEEEE;" parent="r_Byp0ACBqwPXMdRDk11-33" vertex="1">
          <mxGeometry y="104" width="270" height="8" as="geometry" />
        </mxCell>
        <mxCell id="r_Byp0ACBqwPXMdRDk11-37" value="SubCategoryModel(id, ...)" style="text;strokeColor=none;fillColor=none;align=left;verticalAlign=top;spacingLeft=4;spacingRight=4;overflow=hidden;rotatable=0;points=[[0,0.5],[1,0.5]];portConstraint=eastwest;whiteSpace=wrap;html=1;labelBackgroundColor=none;fontColor=#EEEEEE;fontStyle=1" parent="r_Byp0ACBqwPXMdRDk11-33" vertex="1">
          <mxGeometry y="112" width="270" height="22" as="geometry" />
        </mxCell>
        <mxCell id="r_Byp0ACBqwPXMdRDk11-38" value="" style="line;strokeWidth=2;fillColor=#09555B;align=left;verticalAlign=middle;spacingTop=-1;spacingLeft=3;spacingRight=3;rotatable=0;labelPosition=right;points=[];portConstraint=eastwest;strokeColor=#BAC8D3;labelBackgroundColor=none;fontColor=#EEEEEE;" parent="r_Byp0ACBqwPXMdRDk11-33" vertex="1">
          <mxGeometry y="134" width="270" height="8" as="geometry" />
        </mxCell>
        <mxCell id="r_Byp0ACBqwPXMdRDk11-48" value="factory fromDto(String id, SubCategoryDto dto)" style="text;strokeColor=none;fillColor=none;align=left;verticalAlign=top;spacingLeft=4;spacingRight=4;overflow=hidden;rotatable=0;points=[[0,0.5],[1,0.5]];portConstraint=eastwest;whiteSpace=wrap;html=1;labelBackgroundColor=none;fontColor=#EEEEEE;" parent="r_Byp0ACBqwPXMdRDk11-33" vertex="1">
          <mxGeometry y="142" width="270" height="28" as="geometry" />
        </mxCell>
        <mxCell id="r_Byp0ACBqwPXMdRDk11-52" value="factory fromJson(Map&amp;lt;String, dynamic&amp;gt; json)" style="text;strokeColor=none;fillColor=none;align=left;verticalAlign=top;spacingLeft=4;spacingRight=4;overflow=hidden;rotatable=0;points=[[0,0.5],[1,0.5]];portConstraint=eastwest;whiteSpace=wrap;html=1;labelBackgroundColor=none;fontColor=#EEEEEE;" parent="r_Byp0ACBqwPXMdRDk11-33" vertex="1">
          <mxGeometry y="170" width="270" height="26" as="geometry" />
        </mxCell>
        <mxCell id="r_Byp0ACBqwPXMdRDk11-40" value="SubCategoryDto" style="swimlane;fontStyle=1;align=center;verticalAlign=top;childLayout=stackLayout;horizontal=1;startSize=26;horizontalStack=0;resizeParent=1;resizeParentMax=0;resizeLast=0;collapsible=1;marginBottom=0;whiteSpace=wrap;html=1;labelBackgroundColor=none;fillColor=#09555B;strokeColor=#BAC8D3;fontColor=#EEEEEE;strokeWidth=2;" parent="WIyWlLk6GJQsqaUBKTNV-1" vertex="1">
          <mxGeometry x="920" y="1340" width="340" height="142" as="geometry">
            <mxRectangle x="400" y="280" width="120" height="30" as="alternateBounds" />
          </mxGeometry>
        </mxCell>
        <mxCell id="r_Byp0ACBqwPXMdRDk11-42" value="categoryId: String" style="text;strokeColor=none;fillColor=none;align=left;verticalAlign=top;spacingLeft=4;spacingRight=4;overflow=hidden;rotatable=0;points=[[0,0.5],[1,0.5]];portConstraint=eastwest;whiteSpace=wrap;html=1;labelBackgroundColor=none;fontColor=#EEEEEE;" parent="r_Byp0ACBqwPXMdRDk11-40" vertex="1">
          <mxGeometry y="26" width="340" height="26" as="geometry" />
        </mxCell>
        <mxCell id="r_Byp0ACBqwPXMdRDk11-43" value="name: String" style="text;strokeColor=none;fillColor=none;align=left;verticalAlign=top;spacingLeft=4;spacingRight=4;overflow=hidden;rotatable=0;points=[[0,0.5],[1,0.5]];portConstraint=eastwest;whiteSpace=wrap;html=1;labelBackgroundColor=none;fontColor=#EEEEEE;" parent="r_Byp0ACBqwPXMdRDk11-40" vertex="1">
          <mxGeometry y="52" width="340" height="26" as="geometry" />
        </mxCell>
        <mxCell id="r_Byp0ACBqwPXMdRDk11-44" value="" style="line;strokeWidth=2;fillColor=#09555B;align=left;verticalAlign=middle;spacingTop=-1;spacingLeft=3;spacingRight=3;rotatable=0;labelPosition=right;points=[];portConstraint=eastwest;strokeColor=#BAC8D3;labelBackgroundColor=none;fontColor=#EEEEEE;" parent="r_Byp0ACBqwPXMdRDk11-40" vertex="1">
          <mxGeometry y="78" width="340" height="8" as="geometry" />
        </mxCell>
        <mxCell id="r_Byp0ACBqwPXMdRDk11-45" value="SubCategoryDto(categoryId, name)" style="text;strokeColor=none;fillColor=none;align=left;verticalAlign=top;spacingLeft=4;spacingRight=4;overflow=hidden;rotatable=0;points=[[0,0.5],[1,0.5]];portConstraint=eastwest;whiteSpace=wrap;html=1;labelBackgroundColor=none;fontColor=#EEEEEE;fontStyle=1" parent="r_Byp0ACBqwPXMdRDk11-40" vertex="1">
          <mxGeometry y="86" width="340" height="22" as="geometry" />
        </mxCell>
        <mxCell id="r_Byp0ACBqwPXMdRDk11-46" value="" style="line;strokeWidth=2;fillColor=#09555B;align=left;verticalAlign=middle;spacingTop=-1;spacingLeft=3;spacingRight=3;rotatable=0;labelPosition=right;points=[];portConstraint=eastwest;strokeColor=#BAC8D3;labelBackgroundColor=none;fontColor=#EEEEEE;" parent="r_Byp0ACBqwPXMdRDk11-40" vertex="1">
          <mxGeometry y="108" width="340" height="8" as="geometry" />
        </mxCell>
        <mxCell id="r_Byp0ACBqwPXMdRDk11-50" value="factory fromJson(Map&amp;lt;String, dynamic&amp;gt; json)" style="text;strokeColor=none;fillColor=none;align=left;verticalAlign=top;spacingLeft=4;spacingRight=4;overflow=hidden;rotatable=0;points=[[0,0.5],[1,0.5]];portConstraint=eastwest;whiteSpace=wrap;html=1;labelBackgroundColor=none;fontColor=#EEEEEE;" parent="r_Byp0ACBqwPXMdRDk11-40" vertex="1">
          <mxGeometry y="116" width="340" height="26" as="geometry" />
        </mxCell>
        <mxCell id="r_Byp0ACBqwPXMdRDk11-47" style="edgeStyle=orthogonalEdgeStyle;rounded=0;orthogonalLoop=1;jettySize=auto;html=1;strokeWidth=2;strokeColor=#7EA6E0;dashed=1;entryX=0;entryY=0.5;entryDx=0;entryDy=0;labelBackgroundColor=none;fontColor=default;" parent="WIyWlLk6GJQsqaUBKTNV-1" source="r_Byp0ACBqwPXMdRDk11-43" target="r_Byp0ACBqwPXMdRDk11-48" edge="1">
          <mxGeometry relative="1" as="geometry" />
        </mxCell>
        <mxCell id="r_Byp0ACBqwPXMdRDk11-55" style="edgeStyle=orthogonalEdgeStyle;rounded=0;orthogonalLoop=1;jettySize=auto;html=1;strokeColor=#7EA6E0;strokeWidth=2;labelBackgroundColor=none;fontColor=default;" parent="WIyWlLk6GJQsqaUBKTNV-1" source="r_Byp0ACBqwPXMdRDk11-21" target="r_Byp0ACBqwPXMdRDk11-39" edge="1">
          <mxGeometry relative="1" as="geometry" />
        </mxCell>
        <mxCell id="r_Byp0ACBqwPXMdRDk11-53" style="edgeStyle=orthogonalEdgeStyle;rounded=0;orthogonalLoop=1;jettySize=auto;html=1;strokeWidth=2;strokeColor=#7EA6E0;labelBackgroundColor=none;fontColor=default;" parent="WIyWlLk6GJQsqaUBKTNV-1" source="r_Byp0ACBqwPXMdRDk11-21" target="2GeXezmI1lT7xW8D0i3s-1" edge="1">
          <mxGeometry relative="1" as="geometry">
            <Array as="points">
              <mxPoint x="830" y="1199" />
              <mxPoint x="830" y="791" />
            </Array>
          </mxGeometry>
        </mxCell>
        <mxCell id="r_Byp0ACBqwPXMdRDk11-54" style="edgeStyle=orthogonalEdgeStyle;rounded=0;orthogonalLoop=1;jettySize=auto;html=1;strokeColor=#7EA6E0;strokeWidth=2;labelBackgroundColor=none;fontColor=default;" parent="WIyWlLk6GJQsqaUBKTNV-1" source="r_Byp0ACBqwPXMdRDk11-34" target="2GeXezmI1lT7xW8D0i3s-0" edge="1">
          <mxGeometry relative="1" as="geometry">
            <Array as="points">
              <mxPoint x="1280" y="1110" />
              <mxPoint x="1280" y="843" />
            </Array>
          </mxGeometry>
        </mxCell>
        <mxCell id="tl7FGvJi0LViQqiW_1lb-2" style="edgeStyle=orthogonalEdgeStyle;rounded=0;orthogonalLoop=1;jettySize=auto;html=1;strokeColor=#67AB9F;strokeWidth=2;labelBackgroundColor=none;fontColor=default;" parent="WIyWlLk6GJQsqaUBKTNV-1" source="yGnjX18Ffy-fiD3lzH0s-1" target="tl7FGvJi0LViQqiW_1lb-1" edge="1">
          <mxGeometry relative="1" as="geometry">
            <Array as="points">
              <mxPoint x="880" y="329" />
              <mxPoint x="880" y="945" />
            </Array>
          </mxGeometry>
        </mxCell>
        <mxCell id="SM7ea6qoSSTbtUkmd5gZ-35" value="" style="rounded=1;whiteSpace=wrap;html=1;glass=0;shadow=1;sketch=1;curveFitting=1;jiggle=2;labelBackgroundColor=none;fillColor=none;strokeColor=#BAC8D3;fontColor=#EEEEEE;" parent="WIyWlLk6GJQsqaUBKTNV-1" vertex="1">
          <mxGeometry x="80" y="1710" width="1040" height="440" as="geometry" />
        </mxCell>
        <mxCell id="yGnjX18Ffy-fiD3lzH0s-33" style="edgeStyle=orthogonalEdgeStyle;rounded=0;orthogonalLoop=1;jettySize=auto;html=1;exitX=0;exitY=0.5;exitDx=0;exitDy=0;startArrow=classic;startFill=1;strokeWidth=2;strokeColor=#7EA6E0;shadow=0;labelBackgroundColor=none;fontColor=default;" parent="WIyWlLk6GJQsqaUBKTNV-1" source="yGnjX18Ffy-fiD3lzH0s-28" target="yGnjX18Ffy-fiD3lzH0s-31" edge="1">
          <mxGeometry relative="1" as="geometry" />
        </mxCell>
        <mxCell id="yGnjX18Ffy-fiD3lzH0s-28" value="ShoppingRepository" style="rounded=1;whiteSpace=wrap;html=1;fillColor=#09555B;strokeColor=#BAC8D3;shadow=0;labelBackgroundColor=none;fontColor=#EEEEEE;" parent="WIyWlLk6GJQsqaUBKTNV-1" vertex="1">
          <mxGeometry x="720" y="1770" width="140" height="60" as="geometry" />
        </mxCell>
        <mxCell id="yGnjX18Ffy-fiD3lzH0s-30" style="edgeStyle=orthogonalEdgeStyle;rounded=0;orthogonalLoop=1;jettySize=auto;html=1;exitX=0;exitY=0.5;exitDx=0;exitDy=0;strokeWidth=2;strokeColor=#7EA6E0;startArrow=classic;startFill=1;entryX=1;entryY=0.5;entryDx=0;entryDy=0;shadow=0;labelBackgroundColor=none;fontColor=default;" parent="WIyWlLk6GJQsqaUBKTNV-1" source="yGnjX18Ffy-fiD3lzH0s-29" target="yGnjX18Ffy-fiD3lzH0s-28" edge="1">
          <mxGeometry relative="1" as="geometry" />
        </mxCell>
        <mxCell id="yGnjX18Ffy-fiD3lzH0s-29" value="DatabaseService" style="rounded=1;whiteSpace=wrap;html=1;fillColor=#09555B;strokeColor=#BAC8D3;shadow=0;labelBackgroundColor=none;fontColor=#EEEEEE;" parent="WIyWlLk6GJQsqaUBKTNV-1" vertex="1">
          <mxGeometry x="950" y="1900" width="140" height="60" as="geometry" />
        </mxCell>
        <mxCell id="yGnjX18Ffy-fiD3lzH0s-34" style="edgeStyle=orthogonalEdgeStyle;rounded=0;orthogonalLoop=1;jettySize=auto;html=1;entryX=1;entryY=0.5;entryDx=0;entryDy=0;strokeColor=#7EA6E0;startArrow=classic;startFill=1;strokeWidth=2;shadow=0;labelBackgroundColor=none;fontColor=default;" parent="WIyWlLk6GJQsqaUBKTNV-1" source="yGnjX18Ffy-fiD3lzH0s-31" target="yGnjX18Ffy-fiD3lzH0s-32" edge="1">
          <mxGeometry relative="1" as="geometry" />
        </mxCell>
        <mxCell id="yGnjX18Ffy-fiD3lzH0s-31" value="HomeViewModel" style="rounded=1;whiteSpace=wrap;html=1;fillColor=#09555B;strokeColor=#BAC8D3;shadow=0;labelBackgroundColor=none;fontColor=#EEEEEE;" parent="WIyWlLk6GJQsqaUBKTNV-1" vertex="1">
          <mxGeometry x="310" y="1770" width="140" height="60" as="geometry" />
        </mxCell>
        <mxCell id="yGnjX18Ffy-fiD3lzH0s-32" value="HomeView" style="rounded=1;whiteSpace=wrap;html=1;fillColor=#09555B;strokeColor=#BAC8D3;shadow=0;labelBackgroundColor=none;fontColor=#EEEEEE;" parent="WIyWlLk6GJQsqaUBKTNV-1" vertex="1">
          <mxGeometry x="110" y="1770" width="140" height="60" as="geometry" />
        </mxCell>
        <mxCell id="3fTQXvPOQ3stO39uD6o4-53" style="edgeStyle=orthogonalEdgeStyle;rounded=0;orthogonalLoop=1;jettySize=auto;html=1;startArrow=classic;startFill=1;strokeWidth=2;strokeColor=#7EA6E0;entryX=1;entryY=0.5;entryDx=0;entryDy=0;exitX=0;exitY=0.5;exitDx=0;exitDy=0;shadow=0;labelBackgroundColor=none;fontColor=default;" parent="WIyWlLk6GJQsqaUBKTNV-1" source="3fTQXvPOQ3stO39uD6o4-54" target="3fTQXvPOQ3stO39uD6o4-63" edge="1">
          <mxGeometry relative="1" as="geometry">
            <mxPoint x="360" y="2110" as="sourcePoint" />
          </mxGeometry>
        </mxCell>
        <mxCell id="3fTQXvPOQ3stO39uD6o4-54" value="ProductsRepository" style="rounded=1;whiteSpace=wrap;html=1;fillColor=#09555B;strokeColor=#BAC8D3;shadow=0;labelBackgroundColor=none;fontColor=#EEEEEE;" parent="WIyWlLk6GJQsqaUBKTNV-1" vertex="1">
          <mxGeometry x="720" y="1860" width="140" height="60" as="geometry" />
        </mxCell>
        <mxCell id="3fTQXvPOQ3stO39uD6o4-55" style="edgeStyle=orthogonalEdgeStyle;rounded=0;orthogonalLoop=1;jettySize=auto;html=1;exitX=0;exitY=0.5;exitDx=0;exitDy=0;strokeWidth=2;strokeColor=#7EA6E0;startArrow=classic;startFill=1;entryX=1;entryY=0.5;entryDx=0;entryDy=0;shadow=0;labelBackgroundColor=none;fontColor=default;" parent="WIyWlLk6GJQsqaUBKTNV-1" source="yGnjX18Ffy-fiD3lzH0s-29" target="3fTQXvPOQ3stO39uD6o4-54" edge="1">
          <mxGeometry relative="1" as="geometry" />
        </mxCell>
        <mxCell id="3fTQXvPOQ3stO39uD6o4-57" style="edgeStyle=orthogonalEdgeStyle;rounded=0;orthogonalLoop=1;jettySize=auto;html=1;entryX=1;entryY=0.5;entryDx=0;entryDy=0;strokeColor=#7EA6E0;startArrow=classic;startFill=1;strokeWidth=2;shadow=0;labelBackgroundColor=none;fontColor=default;" parent="WIyWlLk6GJQsqaUBKTNV-1" source="3fTQXvPOQ3stO39uD6o4-58" target="3fTQXvPOQ3stO39uD6o4-59" edge="1">
          <mxGeometry relative="1" as="geometry" />
        </mxCell>
        <mxCell id="3fTQXvPOQ3stO39uD6o4-58" value="ShoppingViewModel" style="rounded=1;whiteSpace=wrap;html=1;fillColor=#09555B;strokeColor=#BAC8D3;shadow=0;labelBackgroundColor=none;fontColor=#EEEEEE;" parent="WIyWlLk6GJQsqaUBKTNV-1" vertex="1">
          <mxGeometry x="310" y="1950" width="140" height="60" as="geometry" />
        </mxCell>
        <mxCell id="3fTQXvPOQ3stO39uD6o4-59" value="ShoppingView" style="rounded=1;whiteSpace=wrap;html=1;fillColor=#09555B;strokeColor=#BAC8D3;shadow=0;labelBackgroundColor=none;fontColor=#EEEEEE;" parent="WIyWlLk6GJQsqaUBKTNV-1" vertex="1">
          <mxGeometry x="110" y="1950" width="140" height="60" as="geometry" />
        </mxCell>
        <mxCell id="3fTQXvPOQ3stO39uD6o4-62" style="edgeStyle=orthogonalEdgeStyle;rounded=0;orthogonalLoop=1;jettySize=auto;html=1;strokeColor=#7EA6E0;strokeWidth=2;startArrow=classic;startFill=1;entryX=0;entryY=0.5;entryDx=0;entryDy=0;shadow=0;labelBackgroundColor=none;fontColor=default;" parent="WIyWlLk6GJQsqaUBKTNV-1" source="3fTQXvPOQ3stO39uD6o4-61" target="yGnjX18Ffy-fiD3lzH0s-29" edge="1">
          <mxGeometry relative="1" as="geometry">
            <mxPoint x="1000" y="1830" as="targetPoint" />
          </mxGeometry>
        </mxCell>
        <mxCell id="3fTQXvPOQ3stO39uD6o4-61" value="CartItemsRepository" style="rounded=1;whiteSpace=wrap;html=1;fillColor=#09555B;strokeColor=#BAC8D3;shadow=0;labelBackgroundColor=none;fontColor=#EEEEEE;" parent="WIyWlLk6GJQsqaUBKTNV-1" vertex="1">
          <mxGeometry x="720" y="1950" width="140" height="60" as="geometry" />
        </mxCell>
        <mxCell id="3fTQXvPOQ3stO39uD6o4-65" style="edgeStyle=orthogonalEdgeStyle;rounded=0;orthogonalLoop=1;jettySize=auto;html=1;entryX=1;entryY=0.5;entryDx=0;entryDy=0;strokeColor=#7EA6E0;startArrow=classic;startFill=1;strokeWidth=2;shadow=0;labelBackgroundColor=none;fontColor=default;" parent="WIyWlLk6GJQsqaUBKTNV-1" source="3fTQXvPOQ3stO39uD6o4-63" target="3fTQXvPOQ3stO39uD6o4-58" edge="1">
          <mxGeometry relative="1" as="geometry" />
        </mxCell>
        <mxCell id="3fTQXvPOQ3stO39uD6o4-63" value="ShoppingCartUserCase" style="rounded=1;whiteSpace=wrap;html=1;fillColor=#09555B;strokeColor=#BAC8D3;shadow=0;labelBackgroundColor=none;fontColor=#EEEEEE;" parent="WIyWlLk6GJQsqaUBKTNV-1" vertex="1">
          <mxGeometry x="510" y="1950" width="140" height="60" as="geometry" />
        </mxCell>
        <mxCell id="3fTQXvPOQ3stO39uD6o4-64" style="edgeStyle=orthogonalEdgeStyle;rounded=0;orthogonalLoop=1;jettySize=auto;html=1;startArrow=classic;startFill=1;strokeWidth=2;strokeColor=#7EA6E0;entryX=1;entryY=0.5;entryDx=0;entryDy=0;shadow=0;labelBackgroundColor=none;fontColor=default;" parent="WIyWlLk6GJQsqaUBKTNV-1" source="3fTQXvPOQ3stO39uD6o4-61" target="3fTQXvPOQ3stO39uD6o4-63" edge="1">
          <mxGeometry relative="1" as="geometry">
            <mxPoint x="730" y="1970" as="sourcePoint" />
            <mxPoint x="660" y="1970" as="targetPoint" />
          </mxGeometry>
        </mxCell>
        <mxCell id="SM7ea6qoSSTbtUkmd5gZ-19" value="LastPriceRepository" style="rounded=1;whiteSpace=wrap;html=1;fillColor=#09555B;strokeColor=#BAC8D3;shadow=0;labelBackgroundColor=none;fontColor=#EEEEEE;" parent="WIyWlLk6GJQsqaUBKTNV-1" vertex="1">
          <mxGeometry x="720" y="2040" width="140" height="60" as="geometry" />
        </mxCell>
        <mxCell id="SM7ea6qoSSTbtUkmd5gZ-20" style="edgeStyle=orthogonalEdgeStyle;rounded=0;orthogonalLoop=1;jettySize=auto;html=1;strokeColor=#7EA6E0;strokeWidth=2;startArrow=classic;startFill=1;entryX=0;entryY=0.5;entryDx=0;entryDy=0;exitX=1;exitY=0.5;exitDx=0;exitDy=0;shadow=0;labelBackgroundColor=none;fontColor=default;" parent="WIyWlLk6GJQsqaUBKTNV-1" source="SM7ea6qoSSTbtUkmd5gZ-19" target="yGnjX18Ffy-fiD3lzH0s-29" edge="1">
          <mxGeometry relative="1" as="geometry">
            <mxPoint x="960" y="1920" as="targetPoint" />
            <mxPoint x="870" y="2060" as="sourcePoint" />
          </mxGeometry>
        </mxCell>
        <mxCell id="SM7ea6qoSSTbtUkmd5gZ-21" style="edgeStyle=orthogonalEdgeStyle;rounded=0;orthogonalLoop=1;jettySize=auto;html=1;startArrow=classic;startFill=1;strokeWidth=2;strokeColor=#7EA6E0;entryX=1;entryY=0.5;entryDx=0;entryDy=0;exitX=0;exitY=0.5;exitDx=0;exitDy=0;shadow=0;labelBackgroundColor=none;fontColor=default;" parent="WIyWlLk6GJQsqaUBKTNV-1" source="SM7ea6qoSSTbtUkmd5gZ-19" target="3fTQXvPOQ3stO39uD6o4-63" edge="1">
          <mxGeometry relative="1" as="geometry">
            <mxPoint x="730" y="2060" as="sourcePoint" />
            <mxPoint x="660" y="1970" as="targetPoint" />
          </mxGeometry>
        </mxCell>
        <mxCell id="_XjPlMWu4u-1iisiduKJ-0" value="ListItemModel" style="swimlane;fontStyle=1;align=center;verticalAlign=top;childLayout=stackLayout;horizontal=1;startSize=26;horizontalStack=0;resizeParent=1;resizeParentMax=0;resizeLast=0;collapsible=1;marginBottom=0;whiteSpace=wrap;html=1;labelBackgroundColor=none;fillColor=#09555B;strokeColor=#BAC8D3;fontColor=#EEEEEE;strokeWidth=2;" vertex="1" parent="WIyWlLk6GJQsqaUBKTNV-1">
          <mxGeometry x="920" y="100" width="340" height="246" as="geometry">
            <mxRectangle x="400" y="280" width="120" height="30" as="alternateBounds" />
          </mxGeometry>
        </mxCell>
        <mxCell id="_XjPlMWu4u-1iisiduKJ-16" value="id: String" style="text;strokeColor=none;fillColor=none;align=left;verticalAlign=top;spacingLeft=4;spacingRight=4;overflow=hidden;rotatable=0;points=[[0,0.5],[1,0.5]];portConstraint=eastwest;whiteSpace=wrap;html=1;labelBackgroundColor=none;fontColor=#EEEEEE;" vertex="1" parent="_XjPlMWu4u-1iisiduKJ-0">
          <mxGeometry y="26" width="340" height="26" as="geometry" />
        </mxCell>
        <mxCell id="_XjPlMWu4u-1iisiduKJ-1" value="shoppingId: String" style="text;strokeColor=none;fillColor=none;align=left;verticalAlign=top;spacingLeft=4;spacingRight=4;overflow=hidden;rotatable=0;points=[[0,0.5],[1,0.5]];portConstraint=eastwest;whiteSpace=wrap;html=1;labelBackgroundColor=none;fontColor=#EEEEEE;" vertex="1" parent="_XjPlMWu4u-1iisiduKJ-0">
          <mxGeometry y="52" width="340" height="26" as="geometry" />
        </mxCell>
        <mxCell id="_XjPlMWu4u-1iisiduKJ-2" value="productId: String?" style="text;strokeColor=none;fillColor=none;align=left;verticalAlign=top;spacingLeft=4;spacingRight=4;overflow=hidden;rotatable=0;points=[[0,0.5],[1,0.5]];portConstraint=eastwest;whiteSpace=wrap;html=1;labelBackgroundColor=none;fontColor=#EEEEEE;" vertex="1" parent="_XjPlMWu4u-1iisiduKJ-0">
          <mxGeometry y="78" width="340" height="26" as="geometry" />
        </mxCell>
        <mxCell id="_XjPlMWu4u-1iisiduKJ-3" value="name: String" style="text;strokeColor=none;fillColor=none;align=left;verticalAlign=top;spacingLeft=4;spacingRight=4;overflow=hidden;rotatable=0;points=[[0,0.5],[1,0.5]];portConstraint=eastwest;whiteSpace=wrap;html=1;labelBackgroundColor=none;fontColor=#EEEEEE;" vertex="1" parent="_XjPlMWu4u-1iisiduKJ-0">
          <mxGeometry y="104" width="340" height="26" as="geometry" />
        </mxCell>
        <mxCell id="_XjPlMWu4u-1iisiduKJ-6" value="quantity: int" style="text;strokeColor=none;fillColor=none;align=left;verticalAlign=top;spacingLeft=4;spacingRight=4;overflow=hidden;rotatable=0;points=[[0,0.5],[1,0.5]];portConstraint=eastwest;whiteSpace=wrap;html=1;labelBackgroundColor=none;fontColor=#EEEEEE;" vertex="1" parent="_XjPlMWu4u-1iisiduKJ-0">
          <mxGeometry y="130" width="340" height="26" as="geometry" />
        </mxCell>
        <mxCell id="_XjPlMWu4u-1iisiduKJ-8" value="createdAt: DateTime" style="text;strokeColor=none;fillColor=none;align=left;verticalAlign=top;spacingLeft=4;spacingRight=4;overflow=hidden;rotatable=0;points=[[0,0.5],[1,0.5]];portConstraint=eastwest;whiteSpace=wrap;html=1;labelBackgroundColor=none;fontColor=#EEEEEE;" vertex="1" parent="_XjPlMWu4u-1iisiduKJ-0">
          <mxGeometry y="156" width="340" height="26" as="geometry" />
        </mxCell>
        <mxCell id="_XjPlMWu4u-1iisiduKJ-9" value="" style="line;strokeWidth=2;fillColor=#09555B;align=left;verticalAlign=middle;spacingTop=-1;spacingLeft=3;spacingRight=3;rotatable=0;labelPosition=right;points=[];portConstraint=eastwest;strokeColor=#BAC8D3;labelBackgroundColor=none;fontColor=#EEEEEE;" vertex="1" parent="_XjPlMWu4u-1iisiduKJ-0">
          <mxGeometry y="182" width="340" height="8" as="geometry" />
        </mxCell>
        <mxCell id="_XjPlMWu4u-1iisiduKJ-10" value="ItemModel({shoppingId, ...})" style="text;strokeColor=none;fillColor=none;align=left;verticalAlign=top;spacingLeft=4;spacingRight=4;overflow=hidden;rotatable=0;points=[[0,0.5],[1,0.5]];portConstraint=eastwest;whiteSpace=wrap;html=1;labelBackgroundColor=none;fontColor=#EEEEEE;fontStyle=1" vertex="1" parent="_XjPlMWu4u-1iisiduKJ-0">
          <mxGeometry y="190" width="340" height="22" as="geometry" />
        </mxCell>
        <mxCell id="_XjPlMWu4u-1iisiduKJ-11" value="" style="line;strokeWidth=2;fillColor=#09555B;align=left;verticalAlign=middle;spacingTop=-1;spacingLeft=3;spacingRight=3;rotatable=0;labelPosition=right;points=[];portConstraint=eastwest;strokeColor=#BAC8D3;labelBackgroundColor=none;fontColor=#EEEEEE;" vertex="1" parent="_XjPlMWu4u-1iisiduKJ-0">
          <mxGeometry y="212" width="340" height="8" as="geometry" />
        </mxCell>
        <mxCell id="_XjPlMWu4u-1iisiduKJ-12" value="factory fromJson(Map&amp;lt;String, dynamic&amp;gt; json)" style="text;strokeColor=none;fillColor=none;align=left;verticalAlign=top;spacingLeft=4;spacingRight=4;overflow=hidden;rotatable=0;points=[[0,0.5],[1,0.5]];portConstraint=eastwest;whiteSpace=wrap;html=1;labelBackgroundColor=none;fontColor=#EEEEEE;" vertex="1" parent="_XjPlMWu4u-1iisiduKJ-0">
          <mxGeometry y="220" width="340" height="26" as="geometry" />
        </mxCell>
        <mxCell id="_XjPlMWu4u-1iisiduKJ-14" style="edgeStyle=orthogonalEdgeStyle;rounded=0;orthogonalLoop=1;jettySize=auto;html=1;strokeWidth=2;strokeColor=#67AB9F;labelBackgroundColor=none;fontColor=default;" edge="1" parent="WIyWlLk6GJQsqaUBKTNV-1" source="yGnjX18Ffy-fiD3lzH0s-1" target="_XjPlMWu4u-1iisiduKJ-1">
          <mxGeometry relative="1" as="geometry">
            <mxPoint x="930" y="529" as="targetPoint" />
            <Array as="points">
              <mxPoint x="880" y="329" />
              <mxPoint x="880" y="165" />
            </Array>
            <mxPoint x="810" y="339" as="sourcePoint" />
          </mxGeometry>
        </mxCell>
        <mxCell id="_XjPlMWu4u-1iisiduKJ-15" style="edgeStyle=orthogonalEdgeStyle;rounded=0;orthogonalLoop=1;jettySize=auto;html=1;strokeWidth=2;strokeColor=#7EA6E0;labelBackgroundColor=none;fontColor=default;" edge="1" parent="WIyWlLk6GJQsqaUBKTNV-1" source="yGnjX18Ffy-fiD3lzH0s-17" target="_XjPlMWu4u-1iisiduKJ-2">
          <mxGeometry relative="1" as="geometry">
            <mxPoint x="810" y="636" as="sourcePoint" />
            <mxPoint x="930" y="520" as="targetPoint" />
          </mxGeometry>
        </mxCell>
      </root>
    </mxGraphModel>
  </diagram>
</mxfile>
